<?xml version="1.0" encoding="UTF-8" standalone="no"?>
<!DOCTYPE svg  PUBLIC '-//W3C//DTD SVG 1.1//EN'  'http://www.w3.org/Graphics/SVG/1.1/DTD/svg11.dtd'>
<svg xmlns="http://www.w3.org/2000/svg">
<defs>
<font id="Brown-Regular" horiz-adv-x="605">
<font-face underline-position="-20" font-weight="400" descent="-200" panose-1="2 0 0 0 0 0 0 0 0 0" units-per-em="1000" unicode-range="U+0020-25CA" bbox="-40 -250 1155 930" x-height="470" underline-thickness="80" font-family="Brown" ascent="800" cap-height="700"/>
<missing-glyph horiz-adv-x="1000"/>
<glyph glyph-name=".notdef" horiz-adv-x="1000"/>
<glyph glyph-name=".null" horiz-adv-x="0"/>
<glyph glyph-name="uni000D" horiz-adv-x="1000"/>
<glyph glyph-name="space" horiz-adv-x="270" unicode=" "/>
<glyph glyph-name="exclam" horiz-adv-x="340" unicode="!" d="M100 60q0 29 20.5 49.5t49.5 20.5t49.5 -20.5t20.5 -49.5t-20.5 -49.5t-49.5 -20.5t-49.5 20.5t-20.5 49.5zM123 470v230h95v-230l-15 -250h-65z"/>
<glyph glyph-name="quotedbl" horiz-adv-x="460" unicode='&quot;' d="M285 700h95l-15 -250h-65zM80 700h95l-15 -250h-65z"/>
<glyph glyph-name="numbersign" horiz-adv-x="580" unicode="#" d="M204 285h137l34 130h-137zM410 195l-53 -195h-93l53 195h-137l-53 -195h-93l53 195h-102v90h126l34 130h-103v90h127l53 195h93l-53 -195h137l53 195h93l-53 -195h103v-90h-127l-34 -130h103v-90h-127z"/>
<glyph glyph-name="dollar" horiz-adv-x="532" unicode="$" d="M270 85q24 0 46.5 7.5t39 21.5t26.5 33t10 43q0 40 -24.5 64.5t-61 42.5t-78.5 34t-77 39q-38 25 -63.5 62t-25.5 92q0 33 12 63t33.5 54t52 40.5t67.5 23.5v110h95v-109q48 -8 82.5 -27.5t57.5 -38.5l-59 -73q-57 48 -125 48q-22 0 -42.5 -6t-37 -18t-26.5 -29.5 t-10 -40.5q0 -33 24.5 -55t61 -39.5t78 -34.5t75.5 -39q18 -12 34 -27t29 -34.5t20.5 -44t7.5 -54.5q0 -40 -13 -73.5t-35.5 -59t-53.5 -42.5t-68 -24v-109h-95v109q-58 8 -108.5 36.5t-88.5 76.5l69 68q31 -38 74 -64t97 -26z"/>
<glyph glyph-name="percent" horiz-adv-x="945" unicode="%" d="M615 175q0 -42 24 -71t66 -29t66 29t24 71t-24 71t-66 29t-66 -29t-24 -71zM885 175q0 -38 -13.5 -72t-37.5 -59t-57 -39.5t-72 -14.5t-72 14.5t-57 39.5t-37.5 59t-13.5 72t13.5 72t37.5 59t57 39.5t72 14.5t72 -14.5t57 -39.5t37.5 -59t13.5 -72zM150 525q0 -42 24 -71 t66 -29t66 29t24 71t-24 71t-66 29t-66 -29t-24 -71zM420 525q0 -38 -13.5 -72t-37.5 -59t-57 -39.5t-72 -14.5t-72 14.5t-57 39.5t-37.5 59t-13.5 72t13.5 72t37.5 59t57 39.5t72 14.5t72 -14.5t57 -39.5t37.5 -59t13.5 -72zM220 0l409 700h96l-409 -700h-96z"/>
<glyph glyph-name="ampersand" horiz-adv-x="655" unicode="&amp;" d="M299 553q0 28 -18.5 47.5t-44.5 19.5q-32 0 -49 -20.5t-17 -46.5q0 -25 18.5 -51t39.5 -48q31 23 51 46.5t20 52.5zM125 204q0 -27 11 -50t31.5 -39.5t48 -25.5t60.5 -9q44 0 80.5 15t63.5 41l-204 205q-38 -26 -64.5 -59t-26.5 -78zM685 0h-128l-71 70 q-39 -37 -92 -58.5t-118 -21.5q-52 0 -97 15t-78 43t-52 67.5t-19 88.5q0 37 10 66.5t27 54t39 44.5t46 38q-33 35 -55 69.5t-22 76.5q0 31 11.5 59.5t33 50.5t51 34.5t65.5 12.5q30 0 58.5 -11t50.5 -31.5t35.5 -49.5t13.5 -65q0 -56 -29.5 -94.5t-69.5 -69.5l175 -175 q15 39 15 84q0 48 -7 78t-11 41l90 25q5 -13 14 -50.5t9 -93.5q0 -42 -10 -81t-29 -74z"/>
<glyph glyph-name="quotesingle" horiz-adv-x="255" unicode="&apos;" d="M80 700h95l-15 -250h-65z"/>
<glyph glyph-name="parenleft" horiz-adv-x="445" unicode="(" d="M245 250q0 -114 34.5 -217.5t95.5 -189.5l-77 -53q-70 98 -109 214t-39 246t39 246t109 214l77 -53q-61 -86 -95.5 -189.5t-34.5 -217.5z"/>
<glyph glyph-name="parenright" horiz-adv-x="445" unicode=")" d="M200 250q0 114 -34.5 217.5t-95.5 189.5l77 53q70 -98 109 -214t39 -246t-39 -246t-109 -214l-77 53q61 86 95.5 189.5t34.5 217.5z"/>
<glyph glyph-name="asterisk" horiz-adv-x="500" unicode="*" d="M64 593l146 -47v154h80v-153l146 48l25 -76l-147 -48l91 -124l-64 -47l-91 125l-90 -125l-64 46l90 125l-146 47z"/>
<glyph glyph-name="plus" horiz-adv-x="540" unicode="+" d="M225 305v175h90v-175h175v-90h-175v-175h-90v175h-175v90h175z"/>
<glyph glyph-name="comma" horiz-adv-x="340" unicode="," d="M230 120l-120 -260h-65l75 260h110z"/>
<glyph glyph-name="hyphen" horiz-adv-x="460" unicode="-" d="M380 295v-80h-300v80h300z"/>
<glyph glyph-name="period" horiz-adv-x="340" unicode="." d="M110 60q0 29 20.5 49.5t49.5 20.5t49.5 -20.5t20.5 -49.5t-20.5 -49.5t-49.5 -20.5t-49.5 20.5t-20.5 49.5z"/>
<glyph glyph-name="slash" horiz-adv-x="435" unicode="/" d="M5 0l326 700h99l-326 -700h-99z"/>
<glyph glyph-name="zero" horiz-adv-x="590" unicode="0" d="M55 350q0 75 13 140.5t41.5 114t74 77t111.5 28.5t111.5 -28.5t74 -77t41.5 -114t13 -140.5t-13 -140.5t-41.5 -114t-74 -77t-111.5 -28.5t-111.5 28.5t-74 77t-41.5 114t-13 140.5zM435 350q0 52 -6.5 100t-22.5 85t-43 58.5t-68 21.5t-68 -21.5t-43 -58.5t-22.5 -85 t-6.5 -100q0 -53 6.5 -100.5t22.5 -84.5t43 -58.5t68 -21.5t68 21.5t43 58.5t22.5 84.5t6.5 100.5z"/>
<glyph glyph-name="one" horiz-adv-x="405" unicode="1" d="M50 507v99l165 94h70v-700h-100v575z"/>
<glyph glyph-name="two" horiz-adv-x="520" unicode="2" d="M36 551q14 49 39 80.5t54.5 48.5t59.5 23.5t53 6.5q46 0 85 -17t67.5 -45.5t44.5 -67t16 -81.5q0 -61 -26.5 -111t-64.5 -94l-176 -199h267v-95h-420v65l239 273q41 47 61 82t20 79q0 22 -8 43t-22.5 37.5t-35 26t-45.5 9.5q-48 0 -76.5 -26t-42.5 -67z"/>
<glyph glyph-name="three" horiz-adv-x="540" unicode="3" d="M108 158q17 -33 52.5 -53t79.5 -20q30 0 56 11t46 30t31.5 45.5t11.5 58.5q0 31 -11 58t-31.5 46t-48 30t-60.5 11q-29 0 -51 -4.5t-30 -6.5v65l149 176h-242v95h390v-65l-154 -177q40 -6 74.5 -26t60 -50t40 -69t14.5 -83q0 -52 -19 -96t-51.5 -76t-76 -50t-92.5 -18 q-72 0 -131 30.5t-90 89.5z"/>
<glyph glyph-name="four" horiz-adv-x="565" unicode="4" d="M345 265v236l-188 -236h188zM15 235l360 465h70v-435h110v-95h-110v-170h-100v170h-330v65z"/>
<glyph glyph-name="five" horiz-adv-x="550" unicode="5" d="M200 605l-20 -147q16 5 32.5 8.5t33.5 3.5q51 0 95 -19t76 -52t50 -76.5t18 -92.5t-18 -92.5t-50 -76.5t-76 -52t-96 -19q-65 0 -119 27t-86 73l76 59q20 -26 54 -45t76 -19q31 0 57 11.5t44 31.5t28 46t10 56t-10 56t-28.5 46t-45 31.5t-58.5 11.5t-59 -11t-47 -29 l-69 10l50 355h328v-95h-246z"/>
<glyph glyph-name="six" horiz-adv-x="585" unicode="6" d="M270 465q10 2 19.5 2h18.5q48 0 90 -18t73.5 -50t50 -75t18.5 -94q0 -50 -18.5 -94t-50.5 -76.5t-77 -51t-97 -18.5q-53 0 -97.5 18.5t-76.5 51t-50 75.5t-18 92q0 25 4.5 50.5t18.5 56.5q11 24 28 53t38 61l166 252h113zM189 338q-18 -28 -26.5 -53t-8.5 -55 q0 -31 11 -57.5t30 -46t45.5 -30.5t56.5 -11q31 0 57.5 11.5t45.5 31t29.5 45.5t10.5 55q0 30 -10.5 56.5t-29.5 46.5t-44.5 32t-56.5 12q-34 0 -62.5 -9.5t-47.5 -27.5z"/>
<glyph glyph-name="seven" horiz-adv-x="520" unicode="7" d="M65 0l300 605h-320v95h440v-65l-313 -635h-107z"/>
<glyph glyph-name="eight" horiz-adv-x="580" unicode="8" d="M290 615q-42 0 -68.5 -26t-26.5 -64t26.5 -64t68.5 -26t68.5 26t26.5 64t-26.5 64t-68.5 26zM290 340q-30 0 -55.5 -10t-44.5 -27.5t-29.5 -40.5t-10.5 -50t10.5 -50t29.5 -40t44.5 -27t55.5 -10t55.5 10t44.5 27t29.5 40t10.5 50t-10.5 50t-29.5 40.5t-44.5 27.5 t-55.5 10zM290 -10q-51 0 -94.5 17.5t-76 47.5t-51 70.5t-18.5 86.5q0 60 31.5 108.5t79.5 74.5q-29 20 -47.5 56t-18.5 74t15 72t41 59t61.5 39.5t77.5 14.5t77.5 -14.5t61.5 -39.5t41 -59t15 -72t-18.5 -74t-47.5 -56q48 -26 79.5 -74.5t31.5 -108.5q0 -46 -18.5 -86.5 t-51 -70.5t-76 -47.5t-94.5 -17.5z"/>
<glyph glyph-name="nine" horiz-adv-x="585" unicode="9" d="M315 235q-10 -2 -19.5 -2h-18.5q-48 0 -90.5 18t-74 50t-49.5 75t-18 94q0 50 18.5 94t50.5 76.5t76.5 51t97.5 18.5t97.5 -18.5t76.5 -51t50 -75.5t18 -92q0 -25 -4.5 -50.5t-18.5 -56.5q-11 -24 -28 -53t-38 -61l-166 -252h-113zM396 362q18 28 26.5 53t8.5 55 q0 31 -11 57.5t-30 46t-45.5 30.5t-56.5 11q-32 0 -58 -11.5t-45 -31t-29.5 -45.5t-10.5 -55q0 -30 10.5 -56.5t29 -46.5t44.5 -32t57 -12q34 0 62.5 9.5t47.5 27.5z"/>
<glyph glyph-name="colon" horiz-adv-x="340" unicode=":" d="M110 60q0 29 20.5 49.5t49.5 20.5t49.5 -20.5t20.5 -49.5t-20.5 -49.5t-49.5 -20.5t-49.5 20.5t-20.5 49.5zM110 410q0 29 20.5 49.5t49.5 20.5t49.5 -20.5t20.5 -49.5t-20.5 -49.5t-49.5 -20.5t-49.5 20.5t-20.5 49.5z"/>
<glyph glyph-name="semicolon" horiz-adv-x="340" unicode=";" d="M230 120l-120 -260h-65l75 260h110zM110 410q0 29 20.5 49.5t49.5 20.5t49.5 -20.5t20.5 -49.5t-20.5 -49.5t-49.5 -20.5t-49.5 20.5t-20.5 49.5z"/>
<glyph glyph-name="less" horiz-adv-x="545" unicode="&lt;" d="M490 140v-98l-440 188v60l440 188v-98l-281 -120z"/>
<glyph glyph-name="equal" horiz-adv-x="540" unicode="=" d="M490 215v-90h-440v90h440zM490 395v-90h-440v90h440z"/>
<glyph glyph-name="greater" horiz-adv-x="545" unicode="&gt;" d="M336 260l-281 120v98l440 -188v-60l-440 -188v98z"/>
<glyph glyph-name="question" horiz-adv-x="500" unicode="?" d="M190 60q0 29 20.5 49.5t49.5 20.5t49.5 -20.5t20.5 -49.5t-20.5 -49.5t-49.5 -20.5t-49.5 20.5t-20.5 49.5zM65 570q7 30 25.5 56t45 44.5t59.5 29t69 10.5q42 0 78 -14.5t62.5 -39t41 -58t14.5 -70.5q0 -39 -13 -68.5t-32 -53.5t-42 -42t-42 -33t-32 -28t-13 -26 q0 -19 26 -42l-63 -66q-31 23 -44.5 51t-13.5 56q0 31 13 54t32 42t42 36t42 34.5t32 38t13 47.5q0 38 -28 65t-73 27q-40 0 -70.5 -22t-38.5 -54z"/>
<glyph glyph-name="at" horiz-adv-x="1000" unicode="@" d="M760 -106q-52 -40 -116.5 -62t-136.5 -22q-91 0 -170.5 34.5t-139 94.5t-93.5 140t-34 171t34 171t93.5 140t139 94.5t170.5 34.5q88 0 165 -29t134.5 -81.5t90.5 -126.5t33 -163q0 -51 -11.5 -97t-35.5 -81.5t-60 -56t-85 -20.5q-42 0 -73 15.5t-51 43.5 q-7 -9 -19 -19.5t-29 -19t-39.5 -14.5t-50.5 -6q-37 0 -72.5 14t-63.5 41.5t-45.5 67.5t-17.5 92t17.5 92.5t46 67.5t64.5 41t74 14q47 0 75 -15.5t42 -28.5v34h85v-243q0 -17 1.5 -33.5t8.5 -28.5q8 -13 21 -21.5t33 -8.5q47 0 72 47t25 125q0 68 -25.5 125.5t-70.5 99 t-106 65t-133 23.5t-135 -28t-110.5 -76t-74.5 -113t-27 -138q0 -74 27 -138.5t74.5 -112.5t110.5 -76t135 -28q58 0 110 18.5t96 50.5zM591 335q-17 18 -41 31.5t-62 13.5q-22 0 -43.5 -8t-39 -24t-28 -40.5t-10.5 -57.5t10.5 -57.5t28 -40.5t39.5 -24t45 -8q36 0 60 16.5 t41 33.5v165z"/>
<glyph glyph-name="A" horiz-adv-x="660" unicode="A" d="M222 275h216l-108 260zM477 180h-295l-73 -180h-104l290 700h70l290 -700h-104z"/>
<glyph glyph-name="B" horiz-adv-x="625" unicode="B" d="M90 0v700h238q51 0 85 -13t59 -36q27 -25 42.5 -59.5t15.5 -73.5q0 -36 -15 -69t-40 -56q50 -25 82.5 -74.5t32.5 -109.5q0 -49 -21 -91t-56 -71q-27 -23 -63 -35t-90 -12h-270zM310 425q42 0 63 7.5t33 21.5q24 26 24 61t-24 61q-12 14 -33 21.5t-63 7.5h-120v-180h120z M342 95q48 0 73 9.5t42 26.5q15 16 24 37t9 45t-9 44.5t-24 36.5q-17 17 -42 26.5t-73 9.5h-152v-235h152z"/>
<glyph glyph-name="C" horiz-adv-x="690" unicode="C" d="M35 350q0 76 27 141.5t74.5 114t112 76.5t140.5 28q75 0 142.5 -28.5t113.5 -79.5l-67 -66q-31 34 -81.5 56.5t-107.5 22.5q-54 0 -100 -20t-80.5 -55.5t-54 -84t-19.5 -105.5q0 -59 20 -108t55.5 -84t83.5 -54t104 -19q35 0 65.5 9t55.5 23t45 31.5t35 35.5l71 -64 q-23 -29 -53 -53t-65 -41t-74.5 -26.5t-79.5 -9.5q-78 0 -144.5 27t-115 75t-76 114t-27.5 144z"/>
<glyph glyph-name="D" horiz-adv-x="715" unicode="D" d="M90 0v700h210q84 0 140.5 -17t99.5 -49q65 -48 102.5 -122t37.5 -162t-37 -162t-102 -122q-43 -32 -100 -49t-141 -17h-210zM580 350q0 59 -22.5 110t-62.5 86q-33 29 -79.5 44t-120.5 15h-105v-510h105q74 0 120.5 15t79.5 44q40 35 62.5 86t22.5 110z"/>
<glyph glyph-name="E" horiz-adv-x="540" unicode="E" d="M420 425v-95h-230v-235h310v-95h-410v700h400v-95h-300v-180h230z"/>
<glyph glyph-name="F" horiz-adv-x="510" unicode="F" d="M420 425v-95h-230v-330h-100v700h400v-95h-300v-180h230z"/>
<glyph glyph-name="G" horiz-adv-x="735" unicode="G" d="M670 120q-23 -29 -53 -52.5t-65 -41t-74.5 -27t-79.5 -9.5q-78 0 -144.5 27t-115 75t-76 114t-27.5 144q0 76 27 141.5t74.5 114t112 76.5t140.5 28q75 0 142.5 -28.5t113.5 -79.5l-67 -66q-31 34 -81.5 56.5t-107.5 22.5q-54 0 -100 -20t-80.5 -55.5t-54 -84 t-19.5 -105.5q0 -59 20 -108t55.5 -84t83.5 -54t104 -19t100 18.5t72 46.5v180h-200v95h300v-305z"/>
<glyph glyph-name="H" horiz-adv-x="770" unicode="H" d="M580 330h-390v-330h-100v700h100v-275h390v275h100v-700h-100v330z"/>
<glyph glyph-name="I" horiz-adv-x="280" unicode="I" d="M90 700h100v-700h-100v700z"/>
<glyph glyph-name="J" horiz-adv-x="460" unicode="J" d="M89 141q12 -26 36.5 -41t56.5 -15q23 0 44.5 11t34.5 28q9 12 14 29.5t5 49.5v497h100v-490q0 -42 -6 -69.5t-18 -49.5q-26 -45 -72 -73t-102 -28q-61 0 -110 29.5t-72 83.5z"/>
<glyph glyph-name="K" horiz-adv-x="650" unicode="K" d="M90 700h100v-295l288 295h132l-316 -325l336 -375h-128l-312 350v-350h-100v700z"/>
<glyph glyph-name="L" horiz-adv-x="520" unicode="L" d="M190 95h310v-95h-410v700h100v-605z"/>
<glyph glyph-name="M" horiz-adv-x="860" unicode="M" d="M465 150h-70l-205 321v-471h-100v700h70l270 -427l270 427h70v-700h-100v471z"/>
<glyph glyph-name="N" horiz-adv-x="770" unicode="N" d="M190 514v-514h-100v700h70l420 -514v514h100v-700h-70z"/>
<glyph glyph-name="O" horiz-adv-x="770" unicode="O" d="M135 350q0 -57 19 -105.5t52.5 -84t79 -55.5t99.5 -20t99.5 20t79 55.5t52.5 84t19 105.5t-19 105.5t-52.5 84t-79 55.5t-99.5 20t-99.5 -20t-79 -55.5t-52.5 -84t-19 -105.5zM35 350q0 76 27 142t74 114.5t111 76t138 27.5t138 -27.5t111 -76t74 -114.5t27 -142 q0 -77 -27 -142.5t-74 -114t-111 -76t-138 -27.5t-138 27.5t-111 76t-74 114t-27 142.5z"/>
<glyph glyph-name="P" horiz-adv-x="600" unicode="P" d="M190 310v-310h-100v700h265q51 0 85.5 -12t60.5 -34q32 -27 50.5 -65.5t18.5 -83.5t-18.5 -83.5t-50.5 -65.5q-26 -22 -60.5 -34t-85.5 -12h-165zM350 405q36 0 57 8.5t35 22.5q13 14 20.5 31.5t7.5 37.5t-7.5 37.5t-20.5 31.5q-14 14 -35 22.5t-57 8.5h-160v-200h160z "/>
<glyph glyph-name="Q" horiz-adv-x="775" unicode="Q" d="M135 350q0 -57 19 -105.5t52.5 -84t79 -55.5t99.5 -20q38 0 71.5 10t62.5 28l-168 187l70 60l164 -183q23 33 36.5 74t13.5 89q0 57 -19 105.5t-52.5 84t-79 55.5t-99.5 20t-99.5 -20t-79 -55.5t-52.5 -84t-19 -105.5zM35 350q0 76 27 142t74 114.5t111 76t138 27.5 t138 -27.5t111 -76t74 -114.5t27 -142q0 -69 -22 -129t-61 -108l103 -113h-124l-47 51q-42 -29 -92 -45t-107 -16q-74 0 -138 27.5t-111 76t-74 114t-27 142.5z"/>
<glyph glyph-name="R" horiz-adv-x="640" unicode="R" d="M330 425q34 0 53 7t31 19q26 26 26 64q0 19 -7 35.5t-19 28.5t-31 19t-53 7h-140v-180h140zM190 330v-330h-100v700h245q48 0 80 -10.5t56 -30.5q32 -26 50.5 -63t18.5 -81t-18.5 -81t-50.5 -63q-17 -14 -36.5 -23t-45.5 -14l251 -334h-121l-249 330h-80z"/>
<glyph glyph-name="S" horiz-adv-x="532" unicode="S" d="M99 175q31 -38 74 -64t97 -26q24 0 46.5 7.5t39 21.5t26.5 33t10 43q0 40 -24.5 64.5t-61 42.5t-78.5 34t-77 39q-38 25 -63.5 62t-25.5 92q0 38 16 72t44.5 59.5t67 40t84.5 14.5q33 0 61.5 -6.5t52 -17t42 -22.5t32.5 -24l-59 -73q-57 48 -125 48q-22 0 -42.5 -6 t-37 -18t-26.5 -29.5t-10 -40.5q0 -33 24.5 -55t61 -39.5t78 -34.5t75.5 -39q18 -12 34 -27t29 -34.5t20.5 -44t7.5 -54.5q0 -46 -17 -83.5t-46 -64t-68.5 -41t-85.5 -14.5q-72 0 -135 30t-110 87z"/>
<glyph glyph-name="T" horiz-adv-x="510" unicode="T" d="M15 700h480v-95h-190v-605h-100v605h-190v95z"/>
<glyph glyph-name="U" horiz-adv-x="740" unicode="U" d="M370 -10q-65 0 -121 24.5t-96 67.5q-34 37 -53.5 87t-19.5 121v410h100v-415q0 -50 11.5 -82.5t32.5 -55.5q26 -29 63.5 -45.5t82.5 -16.5t82.5 16.5t63.5 45.5q21 23 32.5 55.5t11.5 82.5v415h100v-410q0 -71 -19.5 -121t-53.5 -87q-40 -43 -96 -67.5t-121 -24.5z"/>
<glyph glyph-name="V" horiz-adv-x="640" unicode="V" d="M355 0h-70l-275 700h104l206 -528l206 528h104z"/>
<glyph glyph-name="W" horiz-adv-x="950" unicode="W" d="M300 0h-70l-220 700h102l157 -507l171 507h70l171 -507l157 507h102l-220 -700h-70l-175 518z"/>
<glyph glyph-name="X" horiz-adv-x="659" unicode="X" d="M15 0l249 383l-209 317h123l151 -233l152 233h123l-210 -317l250 -383h-118l-197 299l-196 -299h-118z"/>
<glyph glyph-name="Y" horiz-adv-x="600" unicode="Y" d="M350 320v-320h-100v320l-240 380h112l178 -281l178 281h112z"/>
<glyph glyph-name="Z" horiz-adv-x="590" unicode="Z" d="M70 700h470v-65l-364 -540h384v-95h-520v65l366 540h-336v95z"/>
<glyph glyph-name="bracketleft" horiz-adv-x="445" unicode="[" d="M150 700h245v-90h-150v-720h150v-90h-245v900z"/>
<glyph glyph-name="backslash" horiz-adv-x="435" unicode="\" d="M331 0l-326 700h99l326 -700h-99z"/>
<glyph glyph-name="bracketright" horiz-adv-x="445" unicode="]" d="M295 -200h-245v90h150v720h-150v90h245v-900z"/>
<glyph glyph-name="asciicircum" horiz-adv-x="540" unicode="^" d="M60 350l177 350h66l177 -350h-100l-110 217l-110 -217h-100z"/>
<glyph glyph-name="underscore" horiz-adv-x="490" unicode="_" d="M470 0v-80h-450v80h450z"/>
<glyph glyph-name="grave" horiz-adv-x="310" unicode="`" d="M175 550l-105 150h105l65 -150h-65z"/>
<glyph glyph-name="a" d="M425 323q-22 29 -56.5 48t-77.5 19q-34 0 -62 -12.5t-47.5 -34t-30.5 -49.5t-11 -59q0 -32 11.5 -60t32.5 -49t49.5 -33.5t62.5 -12.5q36 0 70.5 17.5t58.5 49.5v176zM428 43q-29 -26 -66 -39.5t-79 -13.5q-32 0 -63 8.5t-55 22.5q-54 32 -87 87.5t-33 126.5t33.5 127 t87.5 88q24 14 53 22t62 8q40 0 77.5 -12.5t69.5 -40.5v43h92v-470h-92v43z" unicode="a"/>
<glyph glyph-name="b" d="M180 147q24 -32 58.5 -49.5t70.5 -17.5q34 0 62.5 12.5t49.5 33.5t32.5 49t11.5 60q0 31 -11 59t-30.5 49.5t-47.5 34t-62 12.5q-43 0 -77.5 -19t-56.5 -48v-176zM177 0h-92v710h95v-281q32 26 69 38.5t75 12.5q33 0 62 -8t53 -22q54 -32 87.5 -88t33.5 -127t-33 -126.5 t-87 -87.5q-24 -14 -55 -22.5t-63 -8.5q-86 0 -145 53v-43z" unicode="b"/>
<glyph glyph-name="c" horiz-adv-x="530" unicode="c" d="M505 100q-15 -24 -37 -44.5t-49.5 -35t-59 -22.5t-63.5 -8q-54 0 -100 18.5t-79.5 51.5t-52.5 78t-19 97t18.5 97t51 78t77.5 51.5t98 18.5q62 0 114.5 -28t85.5 -74l-70 -59q-20 27 -52.5 49t-77.5 22q-32 0 -59.5 -11.5t-47.5 -32.5t-31.5 -49.5t-11.5 -61.5 q0 -35 11.5 -63.5t32.5 -48.5t49.5 -31.5t62.5 -11.5q47 0 80 21.5t56 51.5z"/>
<glyph glyph-name="d" d="M425 323q-22 29 -56.5 48t-77.5 19q-34 0 -62 -12.5t-47.5 -34t-30.5 -49.5t-11 -59q0 -32 11.5 -60t32.5 -49t49.5 -33.5t62.5 -12.5q36 0 70.5 17.5t58.5 49.5v176zM428 43q-29 -26 -66 -39.5t-79 -13.5q-32 0 -63 8.5t-55 22.5q-54 32 -87 87.5t-33 126.5t33.5 127 t87.5 88q24 14 53 22t62 8q38 0 75 -12.5t69 -38.5v281h95v-710h-92v43z" unicode="d"/>
<glyph glyph-name="e" horiz-adv-x="545" unicode="e" d="M277 397q-46 0 -83 -28t-49 -74h256q-5 22 -17.5 41t-29 32.5t-36.5 21t-41 7.5zM137 215q2 -30 14.5 -55.5t32.5 -45t47 -30.5t58 -11q52 0 83.5 20.5t51.5 43.5l62 -59q-26 -34 -76 -61t-122 -27q-51 0 -95.5 18.5t-77.5 51t-51.5 77.5t-18.5 98t17 98t47.5 77.5 t72.5 51t92 18.5q49 0 90.5 -18.5t71.5 -51.5t47 -78t17 -97v-8t-1 -12h-362z"/>
<glyph glyph-name="f" horiz-adv-x="405" unicode="f" d="M355 626q-5 2 -15 3t-20 1q-20 0 -40 -8.5t-32 -24.5q-10 -13 -14 -32.5t-4 -51.5v-43h145v-85h-145v-385h-95v385h-110v85h110v40q0 48 7 78.5t23 53.5q26 37 66 57.5t88 20.5q15 0 30.5 -2t25.5 -5z"/>
<glyph glyph-name="g" d="M425 323q-22 29 -56.5 48t-77.5 19q-34 0 -62 -12.5t-47.5 -34t-30.5 -49.5t-11 -59q0 -32 11.5 -60t32.5 -49t49.5 -33.5t62.5 -12.5q36 0 70.5 17.5t58.5 49.5v176zM425 41q-59 -51 -142 -51q-32 0 -63 8.5t-55 22.5q-54 32 -87 87.5t-33 126.5t33.5 127t87.5 88 q24 14 53 22t62 8q40 0 77.5 -12.5t69.5 -40.5v43h92v-450q0 -53 -7 -89.5t-21 -64.5q-29 -55 -81 -85.5t-122 -30.5q-46 0 -83 10.5t-66 26.5t-49 35t-31 37l70 65q26 -34 61.5 -59t93.5 -25q79 0 114 54q13 20 19.5 48t6.5 73v26z" unicode="g"/>
<glyph glyph-name="h" horiz-adv-x="610" unicode="h" d="M180 429q20 17 54.5 34t83.5 17q52 0 96.5 -22.5t74.5 -60.5q23 -29 34.5 -67.5t11.5 -99.5v-230h-95v235q0 45 -7.5 69t-20.5 40q-17 21 -42.5 33.5t-54.5 12.5q-47 0 -80.5 -20.5t-54.5 -46.5v-323h-95v710h95v-281z"/>
<glyph glyph-name="i" horiz-adv-x="265" unicode="i" d="M70 637q0 26 18 44.5t44 18.5t44.5 -18.5t18.5 -44.5t-18.5 -44t-44.5 -18t-44 18t-18 44zM85 470h95v-470h-95v470z"/>
<glyph glyph-name="j" horiz-adv-x="285" unicode="j" d="M105 470h95v-510q0 -48 -7 -78.5t-23 -53.5q-26 -37 -66 -57.5t-88 -20.5q-15 0 -30.5 2t-25.5 5l20 87q5 -2 15 -3t20 -1q20 0 40 8.5t32 24.5q10 13 14 32.5t4 51.5v513zM90 637q0 26 18 44.5t44 18.5t44.5 -18.5t18.5 -44.5t-18.5 -44t-44.5 -18t-44 18t-18 44z"/>
<glyph glyph-name="k" horiz-adv-x="550" unicode="k" d="M540 0h-127l-233 230v-230h-95v710h95v-420l196 180h134l-235 -212z"/>
<glyph glyph-name="l" horiz-adv-x="265" unicode="l" d="M85 710h95v-710h-95v710z"/>
<glyph glyph-name="m" horiz-adv-x="945" unicode="m" d="M177 470v-45q7 8 20.5 17.5t31.5 18t40 14t46 5.5q52 0 94.5 -21.5t71.5 -56.5q32 32 73.5 55t105.5 23q51 0 94.5 -21t72.5 -58q22 -27 32.5 -64t10.5 -97v-240h-95v255q0 36 -7 57.5t-20 36.5q-16 19 -39 30t-49 11q-51 0 -85.5 -21.5t-57.5 -45.5q4 -17 6 -37.5 t2 -45.5v-240h-95v255q0 36 -7 57.5t-20 36.5q-16 19 -40 30t-51 11q-44 0 -78 -21.5t-54 -45.5v-323h-95v470h92z"/>
<glyph glyph-name="n" horiz-adv-x="610" unicode="n" d="M177 425q19 18 54.5 36.5t86.5 18.5q52 0 96.5 -22.5t74.5 -60.5q23 -29 34.5 -67.5t11.5 -99.5v-230h-95v235q0 45 -7.5 69t-20.5 40q-17 21 -42.5 33.5t-54.5 12.5q-47 0 -80.5 -20.5t-54.5 -46.5v-323h-95v470h92v-45z"/>
<glyph glyph-name="o" horiz-adv-x="576" unicode="o" d="M140 235q0 -32 11 -60.5t30.5 -49.5t46.5 -33t60 -12t60 12t46.5 33t30.5 49.5t11 60.5t-11 60.5t-30.5 49.5t-46.5 33t-60 12t-60 -12t-46.5 -33t-30.5 -49.5t-11 -60.5zM45 235q0 52 18.5 97t51 78t77 51.5t96.5 18.5t96.5 -18.5t77 -51.5t51 -78t18.5 -97 q0 -53 -18.5 -97.5t-51 -77.5t-77 -51.5t-96.5 -18.5t-96.5 18.5t-77 51.5t-51 77.5t-18.5 97.5z"/>
<glyph glyph-name="p" d="M180 147q24 -32 58.5 -49.5t70.5 -17.5q34 0 62.5 12.5t49.5 33.5t32.5 49t11.5 60q0 31 -11 59t-30.5 49.5t-47.5 34t-62 12.5q-43 0 -77.5 -19t-56.5 -48v-176zM180 -240h-95v710h92v-43q32 28 69.5 40.5t77.5 12.5q33 0 62 -8t53 -22q54 -32 87.5 -88t33.5 -127 t-33 -126.5t-87 -87.5q-24 -14 -55 -22.5t-63 -8.5q-83 0 -142 51v-281z" unicode="p"/>
<glyph glyph-name="q" d="M425 323q-22 29 -56.5 48t-77.5 19q-34 0 -62 -12.5t-47.5 -34t-30.5 -49.5t-11 -59q0 -32 11.5 -60t32.5 -49t49.5 -33.5t62.5 -12.5q36 0 70.5 17.5t58.5 49.5v176zM425 41q-59 -51 -142 -51q-32 0 -63 8.5t-55 22.5q-54 32 -87 87.5t-33 126.5t33.5 127t87.5 88 q24 14 53 22t62 8q40 0 77.5 -12.5t69.5 -40.5v43h92v-710h-95v281z" unicode="q"/>
<glyph glyph-name="r" horiz-adv-x="385" unicode="r" d="M344 386q-15 4 -37 4q-37 0 -72 -22.5t-55 -56.5v-311h-95v470h92v-54q17 24 53 44t88 20q8 0 18.5 -0.5t18.5 -2.5z"/>
<glyph glyph-name="s" horiz-adv-x="455" unicode="s" d="M89 125q67 -52 139 -52q31 0 56.5 15.5t25.5 43.5q0 20 -13.5 32t-34.5 19.5t-47 13.5t-52 15q-21 7 -40.5 17.5t-34.5 25.5t-24 34t-9 44q0 38 15.5 65.5t40 45.5t55.5 27t63 9q52 0 90 -14.5t66 -37.5l-49 -68q-22 17 -47 27t-54 10q-35 0 -60 -15.5t-25 -43.5 q0 -24 24.5 -35t59.5 -20q28 -7 58 -17.5t55 -27.5t41.5 -42.5t16.5 -61.5q0 -33 -14.5 -60t-38.5 -45.5t-56 -28.5t-66 -10q-110 0 -190 65z"/>
<glyph glyph-name="t" horiz-adv-x="420" unicode="t" d="M375 0q-14 -5 -34 -7.5t-40 -2.5q-45 0 -77.5 14.5t-55.5 40.5q-21 23 -29.5 55t-8.5 70v215h-120v85h120v130h95v-130h150v-85h-150v-220q0 -19 2.5 -34t11.5 -26q10 -12 28 -18.5t37 -6.5q11 0 26 1.5t26 4.5z"/>
<glyph glyph-name="u" horiz-adv-x="600" unicode="u" d="M285 -10q-51 0 -94.5 21t-72.5 58q-22 27 -32.5 64t-10.5 97v240h95v-255q0 -36 7 -57.5t20 -36.5q16 -19 40 -30t51 -11q44 0 78 21.5t54 45.5v323h95v-470h-92v43q-8 -8 -21.5 -17t-31 -17t-39.5 -13.5t-46 -5.5z"/>
<glyph glyph-name="v" horiz-adv-x="494" unicode="v" d="M10 470h98l139 -320l139 320h98l-204 -470h-66z"/>
<glyph glyph-name="w" horiz-adv-x="798" unicode="w" d="M432 470l129 -321l129 321h98l-191 -470h-66l-132 330l-132 -330h-66l-191 470h98l129 -321l129 321h66z"/>
<glyph glyph-name="x" horiz-adv-x="510" unicode="x" d="M255 176l-127 -176h-113l178 247l-161 223h112l111 -152l111 152h112l-161 -223l178 -247h-113z"/>
<glyph glyph-name="y" horiz-adv-x="509" unicode="y" d="M84 -240l127 289l-201 421h102l147 -310l135 310h100l-309 -710h-101z"/>
<glyph glyph-name="z" horiz-adv-x="470" unicode="z" d="M298 385h-243v85h375v-60l-259 -325h279v-85h-410v60z"/>
<glyph glyph-name="braceleft" horiz-adv-x="445" unicode="{" d="M192 250q10 -5 19.5 -12.5t17 -19.5t12 -29t4.5 -42q0 -48 -5 -90t-5 -84q0 -20 3.5 -36t13.5 -27q18 -20 59 -20h34v-90h-30q-46 0 -74.5 7.5t-48.5 24.5q-25 20 -38.5 53t-13.5 82q0 50 5 96.5t5 86.5q0 39 -19 54.5t-61 15.5v60q42 0 61 15.5t19 54.5q0 40 -5 86.5 t-5 96.5q0 49 13.5 82t38.5 53q20 17 48.5 24.5t74.5 7.5h30v-90h-34q-41 0 -59 -20q-10 -11 -13.5 -27t-3.5 -36q0 -42 5 -84t5 -90q0 -25 -4.5 -42t-12 -29t-17 -19.5t-19.5 -12.5z"/>
<glyph glyph-name="bar" horiz-adv-x="215" unicode="|" d="M60 700h95v-900h-95v900z"/>
<glyph glyph-name="braceright" horiz-adv-x="445" unicode="}" d="M253 250q-10 5 -19.5 12.5t-17 19.5t-12 29t-4.5 42q0 48 5 90t5 84q0 20 -3.5 36t-13.5 27q-18 20 -59 20h-34v90h30q46 0 74.5 -7.5t48.5 -24.5q25 -20 38.5 -53t13.5 -82q0 -50 -5 -96.5t-5 -86.5q0 -39 19 -54.5t61 -15.5v-60q-42 0 -61 -15.5t-19 -54.5 q0 -40 5 -86.5t5 -96.5q0 -49 -13.5 -82t-38.5 -53q-20 -17 -48.5 -24.5t-74.5 -7.5h-30v90h34q41 0 59 20q10 11 13.5 27t3.5 36q0 42 -5 84t-5 90q0 25 4.5 42t12 29t17 19.5t19.5 12.5z"/>
<glyph glyph-name="asciitilde" horiz-adv-x="560" unicode="~" d="M535 299q-9 -23 -22.5 -45.5t-32 -41t-43 -30t-54.5 -11.5q-35 0 -63 13.5t-52 30t-45 30.5t-42 14q-14 0 -25.5 -7t-21.5 -18t-18 -25t-14 -27l-77 39q9 22 22.5 45t32 41.5t43 30t54.5 11.5q35 0 63 -14t52 -30.5t45 -30t42 -13.5q13 0 25 7t22 18t18 24.5t14 27.5z "/>
<glyph glyph-name="uni00A0" horiz-adv-x="270" unicode=" "/>
<glyph glyph-name="exclamdown" horiz-adv-x="340" unicode="¡" d="M100 410q0 29 20.5 49.5t49.5 20.5t49.5 -20.5t20.5 -49.5t-20.5 -49.5t-49.5 -20.5t-49.5 20.5t-20.5 49.5zM138 240h65l15 -250v-230h-95v230z"/>
<glyph glyph-name="cent" horiz-adv-x="530" unicode="¢" d="M242 -4q-44 8 -80 29.5t-62 53t-40.5 71.5t-14.5 85q0 46 14.5 86t40.5 71.5t62 53t80 29.5v110h95v-110q47 -9 86.5 -34.5t66.5 -62.5l-70 -59q-20 27 -52.5 49t-77.5 22q-32 0 -59.5 -11.5t-47.5 -32.5t-31.5 -49.5t-11.5 -61.5q0 -35 11.5 -63.5t32.5 -48.5 t49.5 -31.5t62.5 -11.5q47 0 80 21.5t56 51.5l73 -53q-25 -42 -69.5 -70t-98.5 -36v-109h-95v111z"/>
<glyph glyph-name="sterling" horiz-adv-x="530" unicode="£" d="M385 400v-85h-120q6 -29 6 -60q0 -47 -16 -91.5t-42 -73.5h292v-90h-465v60q33 13 58.5 35.5t43 49.5t26 55.5t8.5 54.5q0 16 -2.5 31t-6.5 29h-107v85h76q-12 29 -21 59t-9 65q0 41 16 75.5t43 59t61.5 38t72.5 13.5q31 0 57.5 -8t48 -21.5t39 -30t29.5 -34.5l-75 -54 q-14 23 -39 40.5t-60 17.5q-18 0 -35.5 -6.5t-31.5 -19.5t-22.5 -31t-8.5 -41q0 -30 11.5 -60t24.5 -62h148z"/>
<glyph glyph-name="currency" horiz-adv-x="560" unicode="¤" d="M169 351q0 -23 9 -43t24 -35t35 -24t43 -9t43 9t35 24t24 35t9 43t-9 43t-24 35t-35 24t-43 9t-43 -9t-35 -24t-24 -35t-9 -43zM74 351q0 31 8.5 59t23.5 52l-76 76l63 63l76 -76q24 15 52 23.5t59 8.5t59 -8.5t52 -23.5l76 76l63 -63l-76 -76q32 -49 32 -111t-32 -111 l76 -76l-63 -63l-76 76q-49 -32 -111 -32t-111 32l-76 -76l-63 63l76 76q-15 24 -23.5 52t-8.5 59z"/>
<glyph glyph-name="yen" horiz-adv-x="600" unicode="¥" d="M540 315v-85h-190v-230h-100v230h-190v85h190l-44 70h-146v85h93l-143 230h114l176 -286l176 286h114l-144 -230h94v-85h-147l-43 -70h190z"/>
<glyph glyph-name="brokenbar" horiz-adv-x="255" unicode="¦" d="M80 700h95v-390h-95v390zM80 190h95v-390h-95v390z"/>
<glyph glyph-name="section" horiz-adv-x="580" unicode="§" d="M145 262q0 -32 20 -53.5t51.5 -37t70 -29t74.5 -29.5q13 6 26.5 17t24 24.5t17 30t6.5 33.5q0 32 -20 53t-51.5 37t-70 29t-75.5 30q-13 -7 -26 -17.5t-23.5 -24.5t-17 -30t-6.5 -33zM92 524q0 38 16 72t44.5 59.5t67 40t84.5 14.5q33 0 61.5 -6.5t52 -17t42 -22.5 t32.5 -24l-59 -73q-57 48 -125 48q-22 0 -42.5 -5.5t-37 -16.5t-26.5 -27.5t-10 -38.5q0 -29 23 -47t58 -33t77 -29.5t80 -35.5q45 -24 75 -63t30 -97q0 -48 -25.5 -91.5t-63.5 -71.5q19 -20 30.5 -45t11.5 -58q0 -38 -16 -72t-44.5 -59.5t-67 -40t-84.5 -14.5 q-33 0 -61.5 6.5t-52 17t-42 22.5t-32.5 24l59 73q57 -48 125 -48q22 0 42.5 5.5t37 16.5t26.5 27.5t10 38.5q0 28 -23 46.5t-58 33.5t-77 29.5t-80 35.5q-45 24 -75 63t-30 97q0 48 25.5 91t63.5 72q-20 19 -31 44t-11 59z"/>
<glyph glyph-name="dieresis" horiz-adv-x="450" unicode="¨" d="M255 617q0 26 18 44.5t44 18.5t44.5 -18.5t18.5 -44.5t-18.5 -44t-44.5 -18t-44 18t-18 44zM70 617q0 26 18 44.5t44 18.5t44.5 -18.5t18.5 -44.5t-18.5 -44t-44.5 -18t-44 18t-18 44z"/>
<glyph glyph-name="copyright" horiz-adv-x="840" unicode="©" d="M135 350q0 -59 22.5 -110.5t61 -90t90 -61t110.5 -22.5t111 22.5t90.5 61t61 90t22.5 110.5t-22.5 111t-61 90.5t-90.5 61t-111 22.5t-110.5 -22.5t-90 -61t-61 -90.5t-22.5 -111zM70 350q0 72 27.5 136t75 111.5t111.5 75t136 27.5t136 -27.5t111.5 -75t75 -111.5 t27.5 -136t-27.5 -136t-75 -111.5t-111.5 -75t-136 -27.5t-136 27.5t-111.5 75t-75 111.5t-27.5 136zM517 450q-17 14 -38.5 24.5t-51.5 10.5q-52 0 -86 -37t-34 -95q0 -28 9 -52.5t25.5 -42.5t39.5 -28t52 -10q32 0 54 11t41 25l39 -52q-26 -23 -60 -37.5t-76 -14.5 q-44 0 -80 15.5t-62 42.5t-40.5 64t-14.5 79t14.5 78.5t40.5 63.5t61 42.5t77 15.5q41 0 72.5 -14.5t56.5 -37.5z"/>
<glyph glyph-name="ordfeminine" horiz-adv-x="416" unicode="ª" d="M366 397h-72v25q-36 -32 -90 -32q-31 0 -59 12.5t-49 34t-33.5 50.5t-12.5 63t12.5 63t33.5 50.5t49 34t59 12.5q54 0 90 -32v25h72v-306zM292 604q-13 17 -32 28t-45 11q-20 0 -36.5 -7.5t-28.5 -20t-19 -29.5t-7 -36t7 -36t19 -29.5t28.5 -20t36.5 -7.5q26 0 45 11 t32 28v108z"/>
<glyph glyph-name="guillemotleft" horiz-adv-x="600" unicode="«" d="M560 50h-116l-134 165v50l134 165h116l-154 -190zM330 50h-116l-134 165v50l134 165h116l-154 -190z"/>
<glyph glyph-name="logicalnot" horiz-adv-x="530" unicode="¬" d="M480 125h-90v180h-350v90h440v-270z"/>
<glyph glyph-name="uni00AD" horiz-adv-x="460" unicode="­" d="M380 295v-80h-300v80h300z"/>
<glyph glyph-name="registered" horiz-adv-x="840" unicode="®" d="M135 350q0 -59 22.5 -110.5t61 -90t90 -61t110.5 -22.5t111 22.5t90.5 61t61 90t22.5 110.5t-22.5 111t-61 90.5t-90.5 61t-111 22.5t-110.5 -22.5t-90 -61t-61 -90.5t-22.5 -111zM70 350q0 72 27.5 136t75 111.5t111.5 75t136 27.5t136 -27.5t111.5 -75t75 -111.5 t27.5 -136t-27.5 -136t-75 -111.5t-111.5 -75t-136 -27.5t-136 27.5t-111.5 75t-75 111.5t-27.5 136zM375 399h50q17 0 25.5 3t13.5 9q9 10 9 26q0 14 -9 25q-5 6 -13.5 10t-25.5 4h-50v-77zM546 438q0 -16 -5 -32t-14.5 -30t-23 -24.5t-29.5 -15.5l122 -175h-83l-119 170 h-19v-170h-72v383h128q25 0 42.5 -6t31.5 -17q41 -32 41 -83z"/>
<glyph glyph-name="macron" horiz-adv-x="440" unicode="¯" d="M370 660v-85h-300v85h300z"/>
<glyph glyph-name="degree" horiz-adv-x="400" unicode="°" d="M120 550q0 -33 23.5 -56.5t56.5 -23.5t56.5 23.5t23.5 56.5t-23.5 56.5t-56.5 23.5t-56.5 -23.5t-23.5 -56.5zM40 550q0 33 12.5 62t34.5 51t51 34.5t62 12.5t62 -12.5t51 -34.5t34.5 -51t12.5 -62t-12.5 -62t-34.5 -51t-51 -34.5t-62 -12.5t-62 12.5t-51 34.5t-34.5 51 t-12.5 62z"/>
<glyph glyph-name="plusminus" horiz-adv-x="540" unicode="±" d="M490 110v-90h-440v90h440zM225 365v135h90v-135h175v-90h-175v-135h-90v135h-175v90h175z"/>
<glyph glyph-name="twosuperior" horiz-adv-x="311" unicode="²" d="M31 616q11 43 43.5 68.5t77.5 25.5q24 0 46.5 -8.5t39 -24t26.5 -37t10 -47.5q0 -28 -12.5 -51.5t-30.5 -43.5l-79 -88h124v-70h-246v40l136 152q11 11 22 27t11 34q0 19 -12.5 33t-34.5 14q-19 0 -32 -12.5t-19 -32.5z"/>
<glyph glyph-name="threesuperior" horiz-adv-x="303" unicode="³" d="M80 432q8 -14 23.5 -24t34.5 -10q26 0 43 17.5t17 42.5q0 24 -16 43t-45 19q-22 0 -49 -11v40l61 81h-115v70h223v-40l-64 -88q35 -12 57.5 -44t22.5 -70q0 -27 -10.5 -50.5t-28.5 -40.5t-43 -27t-53 -10q-41 0 -71 18.5t-47 45.5z"/>
<glyph glyph-name="acute" horiz-adv-x="310" unicode="´" d="M70 550l65 150h105l-105 -150h-65z"/>
<glyph glyph-name="mu" horiz-adv-x="610" unicode="µ" d="M295 -10q-20 0 -37.5 4.5t-32.5 11t-26.5 14.5t-18.5 15v-275h-95v710h95v-255q0 -36 7 -57.5t20 -36.5q16 -19 39 -30t49 -11q47 0 79.5 21t55.5 46v323h95v-470h-92v43q-8 -8 -21.5 -17t-31 -17t-39.5 -13.5t-46 -5.5z"/>
<glyph glyph-name="paragraph" horiz-adv-x="685" unicode="¶" d="M125 485q0 -26 9 -48.5t25 -39.5t38 -27t48 -10v250q-26 0 -48 -10t-38 -27t-25 -39.5t-9 -48.5zM440 610h-100v-810h-95v470q-45 0 -84 17t-68 46t-46 68t-17 84q0 54 23.5 99.5t64.5 74.5q27 20 61.5 30.5t85.5 10.5h370v-90h-100v-810h-95v810z"/>
<glyph glyph-name="periodcentered" horiz-adv-x="340" unicode="·" d="M100 235q0 29 20.5 49.5t49.5 20.5t49.5 -20.5t20.5 -49.5t-20.5 -49.5t-49.5 -20.5t-49.5 20.5t-20.5 49.5z"/>
<glyph glyph-name="cedilla" horiz-adv-x="275" unicode="¸" d="M205 10l-30 -150h-105l70 150h65z"/>
<glyph glyph-name="onesuperior" horiz-adv-x="235" unicode="¹" d="M30 644l110 56h45v-360h-75v266l-80 -37v75z"/>
<glyph glyph-name="ordmasculine" horiz-adv-x="416" unicode="º" d="M50 550q0 33 11.5 62t32.5 51t50 34.5t64 12.5t64 -12.5t50 -34.5t32.5 -51t11.5 -62t-11.5 -62t-32.5 -51t-50 -34.5t-64 -12.5t-64 12.5t-50 34.5t-32.5 51t-11.5 62zM292 549q0 41 -23 67.5t-61 26.5t-61 -26.5t-23 -67.5q0 -39 23 -65.5t61 -26.5t61 26.5t23 65.5z "/>
<glyph glyph-name="guillemotright" horiz-adv-x="600" unicode="»" d="M194 240l-154 190h116l134 -165v-50l-134 -165h-116zM424 240l-154 190h116l134 -165v-50l-134 -165h-116z"/>
<glyph glyph-name="onequarter" horiz-adv-x="632" unicode="¼" d="M30 644l110 56h45v-360h-75v266l-80 -37v75zM65 0l409 700h86l-409 -700h-86zM481 147v66l-50 -66h50zM556 360v-213h61v-70h-61v-77h-75v77h-161v40l191 243h45z"/>
<glyph glyph-name="onehalf" horiz-adv-x="676" unicode="½" d="M30 644l110 56h45v-360h-75v266l-80 -37v75zM65 0l409 700h86l-409 -700h-86zM396 276q11 43 43.5 68.5t77.5 25.5q24 0 46.5 -8.5t39 -24t26.5 -37t10 -47.5q0 -28 -12.5 -51.5t-30.5 -43.5l-79 -88h124v-70h-246v40l136 152q11 11 22 27t11 34q0 19 -12.5 33t-34.5 14 q-19 0 -32 -12.5t-19 -32.5z"/>
<glyph glyph-name="threequarters" horiz-adv-x="670" unicode="¾" d="M80 432q8 -14 23.5 -24t34.5 -10q26 0 43 17.5t17 42.5q0 24 -16 43t-45 19q-22 0 -49 -11v40l61 81h-115v70h223v-40l-64 -88q35 -12 57.5 -44t22.5 -70q0 -27 -10.5 -50.5t-28.5 -40.5t-43 -27t-53 -10q-41 0 -71 18.5t-47 45.5zM103 0l409 700h86l-409 -700h-86z M519 147v66l-50 -66h50zM594 360v-213h61v-70h-61v-77h-75v77h-161v40l191 243h45z"/>
<glyph glyph-name="questiondown" horiz-adv-x="500" unicode="¿" d="M310 410q0 -29 -20.5 -49.5t-49.5 -20.5t-49.5 20.5t-20.5 49.5t20.5 49.5t49.5 20.5t49.5 -20.5t20.5 -49.5zM435 -110q-8 -30 -26 -56t-44.5 -44.5t-59.5 -29t-69 -10.5q-42 0 -78 14.5t-62.5 39t-41 57.5t-14.5 71t13 68t32 54t42 42t42 33t32 28t13 26q0 19 -26 42 l63 66q31 -23 44.5 -51t13.5 -56q0 -31 -13 -54t-32 -42t-42 -36t-42 -34.5t-32 -38t-13 -47.5q0 -38 28 -65t73 -27q40 0 70.5 22t38.5 54z"/>
<glyph glyph-name="Agrave" horiz-adv-x="660" unicode="À" d="M222 275h216l-108 260zM477 180h-295l-73 -180h-104l290 700h70l290 -700h-104zM295 750l-105 150h105l65 -150h-65z"/>
<glyph glyph-name="Aacute" horiz-adv-x="660" unicode="Á" d="M222 275h216l-108 260zM477 180h-295l-73 -180h-104l290 700h70l290 -700h-104zM300 750l65 150h105l-105 -150h-65z"/>
<glyph glyph-name="Acircumflex" horiz-adv-x="660" unicode="Â" d="M222 275h216l-108 260zM477 180h-295l-73 -180h-104l290 700h70l290 -700h-104zM180 750l95 150h110l95 -150h-65l-85 94l-85 -94h-65z"/>
<glyph glyph-name="Atilde" horiz-adv-x="660" unicode="Ã" d="M222 275h216l-108 260zM477 180h-295l-73 -180h-104l290 700h70l290 -700h-104zM160 781q1 22 8.5 42t20.5 35t31 23.5t41 8.5q19 0 37 -7t35 -15.5t33 -15.5t31 -7q17 0 25.5 11.5t12.5 33.5l65 -21q-1 -22 -8.5 -42t-20.5 -35t-31.5 -23.5t-40.5 -8.5q-19 0 -37 7 t-35 15.5t-33 15.5t-31 7q-17 0 -25.5 -11.5t-12.5 -33.5z"/>
<glyph glyph-name="Adieresis" horiz-adv-x="660" unicode="Ä" d="M222 275h216l-108 260zM477 180h-295l-73 -180h-104l290 700h70l290 -700h-104zM360 817q0 26 18 44.5t44 18.5t44.5 -18.5t18.5 -44.5t-18.5 -44t-44.5 -18t-44 18t-18 44zM175 817q0 26 18 44.5t44 18.5t44.5 -18.5t18.5 -44.5t-18.5 -44t-44.5 -18t-44 18t-18 44z"/>
<glyph glyph-name="Aring" horiz-adv-x="660" unicode="Å" d="M222 275h216l-108 260zM477 180h-295l-73 -180h-104l290 700h70l290 -700h-104zM290 830q0 -17 11.5 -28.5t28.5 -11.5t28.5 11.5t11.5 28.5t-11.5 28.5t-28.5 11.5t-28.5 -11.5t-11.5 -28.5zM230 830q0 42 29 71t71 29t71 -29t29 -71t-29 -71t-71 -29t-71 29t-29 71z "/>
<glyph glyph-name="AE" horiz-adv-x="910" unicode="Æ" d="M258 275h202v340zM460 0v180h-258l-108 -180h-114l418 700h462v-95h-300v-180h230v-95h-230v-235h310v-95h-410z"/>
<glyph glyph-name="Ccedilla" horiz-adv-x="690" unicode="Ç" d="M35 350q0 76 27 141.5t74.5 114t112 76.5t140.5 28q75 0 142.5 -28.5t113.5 -79.5l-67 -66q-31 34 -81.5 56.5t-107.5 22.5q-54 0 -100 -20t-80.5 -55.5t-54 -84t-19.5 -105.5q0 -59 20 -108t55.5 -84t83.5 -54t104 -19q35 0 65.5 9t55.5 23t45 31.5t35 35.5l71 -64 q-42 -54 -108 -89t-141 -40l-26 -131h-105l62 133q-69 7 -127.5 37t-100.5 77t-65.5 109t-23.5 134z"/>
<glyph glyph-name="Egrave" horiz-adv-x="540" unicode="È" d="M420 425v-95h-230v-235h310v-95h-410v700h400v-95h-300v-180h230zM270 750l-105 150h105l65 -150h-65z"/>
<glyph glyph-name="Eacute" horiz-adv-x="540" unicode="É" d="M420 425v-95h-230v-235h310v-95h-410v700h400v-95h-300v-180h230zM255 750l65 150h105l-105 -150h-65z"/>
<glyph glyph-name="Ecircumflex" horiz-adv-x="540" unicode="Ê" d="M420 425v-95h-230v-235h310v-95h-410v700h400v-95h-300v-180h230zM140 750l95 150h110l95 -150h-65l-85 94l-85 -94h-65z"/>
<glyph glyph-name="Edieresis" horiz-adv-x="540" unicode="Ë" d="M420 425v-95h-230v-235h310v-95h-410v700h400v-95h-300v-180h230zM320 817q0 26 18 44.5t44 18.5t44.5 -18.5t18.5 -44.5t-18.5 -44t-44.5 -18t-44 18t-18 44zM135 817q0 26 18 44.5t44 18.5t44.5 -18.5t18.5 -44.5t-18.5 -44t-44.5 -18t-44 18t-18 44z"/>
<glyph glyph-name="Igrave" horiz-adv-x="280" unicode="Ì" d="M90 700h100v-700h-100v700zM116 750l-105 150h105l65 -150h-65z"/>
<glyph glyph-name="Iacute" horiz-adv-x="280" unicode="Í" d="M90 700h100v-700h-100v700zM100 750l65 150h105l-105 -150h-65z"/>
<glyph glyph-name="Icircumflex" horiz-adv-x="280" unicode="Î" d="M90 700h100v-700h-100v700zM-9 750l95 150h110l95 -150h-65l-85 94l-85 -94h-65z"/>
<glyph glyph-name="Idieresis" horiz-adv-x="280" unicode="Ï" d="M90 700h100v-700h-100v700zM171 817q0 26 18 44.5t44 18.5t44.5 -18.5t18.5 -44.5t-18.5 -44t-44.5 -18t-44 18t-18 44zM-14 817q0 26 18 44.5t44 18.5t44.5 -18.5t18.5 -44.5t-18.5 -44t-44.5 -18t-44 18t-18 44z"/>
<glyph glyph-name="Eth" horiz-adv-x="715" unicode="Ð" d="M580 350q0 59 -22.5 110t-62.5 86q-33 29 -79.5 44t-120.5 15h-105v-180h200v-95h-200v-235h105q74 0 120.5 15t79.5 44q40 35 62.5 86t22.5 110zM90 0v330h-100v95h100v275h210q84 0 140.5 -17t99.5 -49q65 -48 102.5 -122t37.5 -162t-37 -162t-102 -122 q-43 -32 -100 -49t-141 -17h-210z"/>
<glyph glyph-name="Ntilde" horiz-adv-x="770" unicode="Ñ" d="M190 514v-514h-100v700h70l420 -514v514h100v-700h-70zM214 781q1 22 8.5 42t20.5 35t31 23.5t41 8.5q19 0 37 -7t35 -15.5t33 -15.5t31 -7q17 0 25.5 11.5t12.5 33.5l65 -21q-1 -22 -8.5 -42t-20.5 -35t-31.5 -23.5t-40.5 -8.5q-19 0 -37 7t-35 15.5t-33 15.5t-31 7 q-17 0 -25.5 -11.5t-12.5 -33.5z"/>
<glyph glyph-name="Ograve" horiz-adv-x="770" unicode="Ò" d="M135 350q0 -57 19 -105.5t52.5 -84t79 -55.5t99.5 -20t99.5 20t79 55.5t52.5 84t19 105.5t-19 105.5t-52.5 84t-79 55.5t-99.5 20t-99.5 -20t-79 -55.5t-52.5 -84t-19 -105.5zM35 350q0 76 27 142t74 114.5t111 76t138 27.5t138 -27.5t111 -76t74 -114.5t27 -142 q0 -77 -27 -142.5t-74 -114t-111 -76t-138 -27.5t-138 27.5t-111 76t-74 114t-27 142.5zM355 750l-105 150h105l65 -150h-65z"/>
<glyph glyph-name="Oacute" horiz-adv-x="770" unicode="Ó" d="M135 350q0 -57 19 -105.5t52.5 -84t79 -55.5t99.5 -20t99.5 20t79 55.5t52.5 84t19 105.5t-19 105.5t-52.5 84t-79 55.5t-99.5 20t-99.5 -20t-79 -55.5t-52.5 -84t-19 -105.5zM35 350q0 76 27 142t74 114.5t111 76t138 27.5t138 -27.5t111 -76t74 -114.5t27 -142 q0 -77 -27 -142.5t-74 -114t-111 -76t-138 -27.5t-138 27.5t-111 76t-74 114t-27 142.5zM350 750l65 150h105l-105 -150h-65z"/>
<glyph glyph-name="Ocircumflex" horiz-adv-x="770" unicode="Ô" d="M135 350q0 -57 19 -105.5t52.5 -84t79 -55.5t99.5 -20t99.5 20t79 55.5t52.5 84t19 105.5t-19 105.5t-52.5 84t-79 55.5t-99.5 20t-99.5 -20t-79 -55.5t-52.5 -84t-19 -105.5zM35 350q0 76 27 142t74 114.5t111 76t138 27.5t138 -27.5t111 -76t74 -114.5t27 -142 q0 -77 -27 -142.5t-74 -114t-111 -76t-138 -27.5t-138 27.5t-111 76t-74 114t-27 142.5zM235 750l95 150h110l95 -150h-65l-85 94l-85 -94h-65z"/>
<glyph glyph-name="Otilde" horiz-adv-x="770" unicode="Õ" d="M135 350q0 -57 19 -105.5t52.5 -84t79 -55.5t99.5 -20t99.5 20t79 55.5t52.5 84t19 105.5t-19 105.5t-52.5 84t-79 55.5t-99.5 20t-99.5 -20t-79 -55.5t-52.5 -84t-19 -105.5zM35 350q0 76 27 142t74 114.5t111 76t138 27.5t138 -27.5t111 -76t74 -114.5t27 -142 q0 -77 -27 -142.5t-74 -114t-111 -76t-138 -27.5t-138 27.5t-111 76t-74 114t-27 142.5zM215 781q1 22 8.5 42t20.5 35t31 23.5t41 8.5q19 0 37 -7t35 -15.5t33 -15.5t31 -7q17 0 25.5 11.5t12.5 33.5l65 -21q-1 -22 -8.5 -42t-20.5 -35t-31.5 -23.5t-40.5 -8.5q-19 0 -37 7 t-35 15.5t-33 15.5t-31 7q-17 0 -25.5 -11.5t-12.5 -33.5z"/>
<glyph glyph-name="Odieresis" horiz-adv-x="770" unicode="Ö" d="M135 350q0 -57 19 -105.5t52.5 -84t79 -55.5t99.5 -20t99.5 20t79 55.5t52.5 84t19 105.5t-19 105.5t-52.5 84t-79 55.5t-99.5 20t-99.5 -20t-79 -55.5t-52.5 -84t-19 -105.5zM35 350q0 76 27 142t74 114.5t111 76t138 27.5t138 -27.5t111 -76t74 -114.5t27 -142 q0 -77 -27 -142.5t-74 -114t-111 -76t-138 -27.5t-138 27.5t-111 76t-74 114t-27 142.5zM415 817q0 26 18 44.5t44 18.5t44.5 -18.5t18.5 -44.5t-18.5 -44t-44.5 -18t-44 18t-18 44zM230 817q0 26 18 44.5t44 18.5t44.5 -18.5t18.5 -44.5t-18.5 -44t-44.5 -18t-44 18t-18 44 z"/>
<glyph glyph-name="multiply" horiz-adv-x="548" unicode="×" d="M274 324l145 145l64 -64l-145 -145l145 -145l-64 -64l-145 145l-145 -145l-64 64l145 145l-145 145l64 64z"/>
<glyph glyph-name="Oslash" horiz-adv-x="770" unicode="Ø" d="M635 350q0 48 -13.5 89.5t-38.5 75.5l-330 -393q59 -37 132 -37q54 0 99.5 20t79 55.5t52.5 84t19 105.5zM135 350q0 -48 13.5 -90t37.5 -75l331 392q-29 18 -62 28t-70 10q-54 0 -99.5 -20t-79 -55.5t-52.5 -84t-19 -105.5zM35 350q0 76 27 142t74 114.5t111 76 t138 27.5q55 0 103.5 -15t90.5 -43l49 58h119l-99 -119q41 -48 64 -109t23 -132q0 -77 -27 -142.5t-74 -114t-111 -76t-138 -27.5q-55 0 -103.5 15t-90.5 42l-49 -57h-120l100 118q-42 48 -64.5 109t-22.5 133z"/>
<glyph glyph-name="Ugrave" horiz-adv-x="740" unicode="Ù" d="M370 -10q-65 0 -121 24.5t-96 67.5q-34 37 -53.5 87t-19.5 121v410h100v-415q0 -50 11.5 -82.5t32.5 -55.5q26 -29 63.5 -45.5t82.5 -16.5t82.5 16.5t63.5 45.5q21 23 32.5 55.5t11.5 82.5v415h100v-410q0 -71 -19.5 -121t-53.5 -87q-40 -43 -96 -67.5t-121 -24.5z M340 750l-105 150h105l65 -150h-65z"/>
<glyph glyph-name="Uacute" horiz-adv-x="740" unicode="Ú" d="M370 -10q-65 0 -121 24.5t-96 67.5q-34 37 -53.5 87t-19.5 121v410h100v-415q0 -50 11.5 -82.5t32.5 -55.5q26 -29 63.5 -45.5t82.5 -16.5t82.5 16.5t63.5 45.5q21 23 32.5 55.5t11.5 82.5v415h100v-410q0 -71 -19.5 -121t-53.5 -87q-40 -43 -96 -67.5t-121 -24.5z M335 750l65 150h105l-105 -150h-65z"/>
<glyph glyph-name="Ucircumflex" horiz-adv-x="740" unicode="Û" d="M370 -10q-65 0 -121 24.5t-96 67.5q-34 37 -53.5 87t-19.5 121v410h100v-415q0 -50 11.5 -82.5t32.5 -55.5q26 -29 63.5 -45.5t82.5 -16.5t82.5 16.5t63.5 45.5q21 23 32.5 55.5t11.5 82.5v415h100v-410q0 -71 -19.5 -121t-53.5 -87q-40 -43 -96 -67.5t-121 -24.5z M220 750l95 150h110l95 -150h-65l-85 94l-85 -94h-65z"/>
<glyph glyph-name="Udieresis" horiz-adv-x="740" unicode="Ü" d="M370 -10q-65 0 -121 24.5t-96 67.5q-34 37 -53.5 87t-19.5 121v410h100v-415q0 -50 11.5 -82.5t32.5 -55.5q26 -29 63.5 -45.5t82.5 -16.5t82.5 16.5t63.5 45.5q21 23 32.5 55.5t11.5 82.5v415h100v-410q0 -71 -19.5 -121t-53.5 -87q-40 -43 -96 -67.5t-121 -24.5z M400 817q0 26 18 44.5t44 18.5t44.5 -18.5t18.5 -44.5t-18.5 -44t-44.5 -18t-44 18t-18 44zM215 817q0 26 18 44.5t44 18.5t44.5 -18.5t18.5 -44.5t-18.5 -44t-44.5 -18t-44 18t-18 44z"/>
<glyph glyph-name="Yacute" horiz-adv-x="600" unicode="Ý" d="M350 320v-320h-100v320l-240 380h112l178 -281l178 281h112zM265 750l65 150h105l-105 -150h-65z"/>
<glyph glyph-name="Thorn" horiz-adv-x="600" unicode="Þ" d="M355 545q51 0 85.5 -12t60.5 -34q32 -27 50.5 -65.5t18.5 -83.5t-18.5 -83.5t-50.5 -65.5q-26 -22 -60.5 -34t-85.5 -12h-165v-155h-100v700h100v-155h165zM350 250q36 0 57 8.5t35 22.5q13 14 20.5 31.5t7.5 37.5t-7.5 37.5t-20.5 31.5q-14 14 -35 22.5t-57 8.5h-160 v-200h160z"/>
<glyph glyph-name="germandbls" horiz-adv-x="590" unicode="ß" d="M265 91q25 -11 53 -11q29 0 53 10t41 28t26.5 41.5t9.5 50.5q0 26 -9 48.5t-25 39.5q-18 20 -45 31t-71 11h-38v90h4q32 0 52.5 7t34.5 19q15 14 24 33t9 41q0 41 -28 70.5t-70 29.5q-23 0 -44.5 -9t-35.5 -26q-11 -13 -18.5 -32t-7.5 -53v-510h-95v510q0 51 13 86t36 60 q27 30 65 47t83 17q40 0 76 -15t63 -40.5t42.5 -60.5t15.5 -74q0 -35 -14 -68.5t-39 -56.5q54 -28 86.5 -79.5t32.5 -115.5q0 -45 -16.5 -85t-46 -70t-70 -47.5t-87.5 -17.5q-50 0 -96 22z"/>
<glyph glyph-name="agrave" d="M425 323q-22 29 -56.5 48t-77.5 19q-34 0 -62 -12.5t-47.5 -34t-30.5 -49.5t-11 -59q0 -32 11.5 -60t32.5 -49t49.5 -33.5t62.5 -12.5q36 0 70.5 17.5t58.5 49.5v176zM428 43q-29 -26 -66 -39.5t-79 -13.5q-32 0 -63 8.5t-55 22.5q-54 32 -87 87.5t-33 126.5t33.5 127 t87.5 88q24 14 53 22t62 8q40 0 77.5 -12.5t69.5 -40.5v43h92v-470h-92v43zM307 550l-105 150h105l65 -150h-65z" unicode="à"/>
<glyph glyph-name="aacute" d="M425 323q-22 29 -56.5 48t-77.5 19q-34 0 -62 -12.5t-47.5 -34t-30.5 -49.5t-11 -59q0 -32 11.5 -60t32.5 -49t49.5 -33.5t62.5 -12.5q36 0 70.5 17.5t58.5 49.5v176zM428 43q-29 -26 -66 -39.5t-79 -13.5q-32 0 -63 8.5t-55 22.5q-54 32 -87 87.5t-33 126.5t33.5 127 t87.5 88q24 14 53 22t62 8q40 0 77.5 -12.5t69.5 -40.5v43h92v-470h-92v43zM252 550l65 150h105l-105 -150h-65z" unicode="á"/>
<glyph glyph-name="acircumflex" d="M425 323q-22 29 -56.5 48t-77.5 19q-34 0 -62 -12.5t-47.5 -34t-30.5 -49.5t-11 -59q0 -32 11.5 -60t32.5 -49t49.5 -33.5t62.5 -12.5q36 0 70.5 17.5t58.5 49.5v176zM428 43q-29 -26 -66 -39.5t-79 -13.5q-32 0 -63 8.5t-55 22.5q-54 32 -87 87.5t-33 126.5t33.5 127 t87.5 88q24 14 53 22t62 8q40 0 77.5 -12.5t69.5 -40.5v43h92v-470h-92v43zM157 550l95 150h110l95 -150h-65l-85 94l-85 -94h-65z" unicode="â"/>
<glyph glyph-name="atilde" d="M425 323q-22 29 -56.5 48t-77.5 19q-34 0 -62 -12.5t-47.5 -34t-30.5 -49.5t-11 -59q0 -32 11.5 -60t32.5 -49t49.5 -33.5t62.5 -12.5q36 0 70.5 17.5t58.5 49.5v176zM428 43q-29 -26 -66 -39.5t-79 -13.5q-32 0 -63 8.5t-55 22.5q-54 32 -87 87.5t-33 126.5t33.5 127 t87.5 88q24 14 53 22t62 8q40 0 77.5 -12.5t69.5 -40.5v43h92v-470h-92v43zM131 581q1 22 8.5 42t20.5 35t31 23.5t41 8.5q19 0 37 -7t35 -15.5t33 -15.5t31 -7q17 0 25.5 11.5t12.5 33.5l65 -21q-1 -22 -8.5 -42t-20.5 -35t-31.5 -23.5t-40.5 -8.5q-19 0 -37 7t-35 15.5 t-33 15.5t-31 7q-17 0 -25.5 -11.5t-12.5 -33.5z" unicode="ã"/>
<glyph glyph-name="adieresis" d="M425 323q-22 29 -56.5 48t-77.5 19q-34 0 -62 -12.5t-47.5 -34t-30.5 -49.5t-11 -59q0 -32 11.5 -60t32.5 -49t49.5 -33.5t62.5 -12.5q36 0 70.5 17.5t58.5 49.5v176zM428 43q-29 -26 -66 -39.5t-79 -13.5q-32 0 -63 8.5t-55 22.5q-54 32 -87 87.5t-33 126.5t33.5 127 t87.5 88q24 14 53 22t62 8q40 0 77.5 -12.5t69.5 -40.5v43h92v-470h-92v43zM327 617q0 26 18 44.5t44 18.5t44.5 -18.5t18.5 -44.5t-18.5 -44t-44.5 -18t-44 18t-18 44zM142 617q0 26 18 44.5t44 18.5t44.5 -18.5t18.5 -44.5t-18.5 -44t-44.5 -18t-44 18t-18 44z" unicode="ä"/>
<glyph glyph-name="aring" d="M425 323q-22 29 -56.5 48t-77.5 19q-34 0 -62 -12.5t-47.5 -34t-30.5 -49.5t-11 -59q0 -32 11.5 -60t32.5 -49t49.5 -33.5t62.5 -12.5q36 0 70.5 17.5t58.5 49.5v176zM428 43q-29 -26 -66 -39.5t-79 -13.5q-32 0 -63 8.5t-55 22.5q-54 32 -87 87.5t-33 126.5t33.5 127 t87.5 88q24 14 53 22t62 8q40 0 77.5 -12.5t69.5 -40.5v43h92v-470h-92v43zM257 630q0 -17 11.5 -28.5t28.5 -11.5t28.5 11.5t11.5 28.5t-11.5 28.5t-28.5 11.5t-28.5 -11.5t-11.5 -28.5zM197 630q0 42 29 71t71 29t71 -29t29 -71t-29 -71t-71 -29t-71 29t-29 71z" unicode="å"/>
<glyph glyph-name="ae" horiz-adv-x="929" unicode="æ" d="M657 397q-48 0 -85.5 -28t-50.5 -74h264q-6 22 -18.5 41t-29.5 32.5t-37.5 21t-42.5 7.5zM425 323q-22 29 -56.5 48t-77.5 19q-34 0 -62 -12.5t-47.5 -34t-30.5 -49.5t-11 -59q0 -32 11.5 -60t32.5 -49t49.5 -33.5t62.5 -12.5q36 0 70.5 17.5t58.5 49.5v176zM428 43 q-29 -26 -66 -39.5t-79 -13.5q-32 0 -63 8.5t-55 22.5q-54 32 -87 87.5t-33 126.5t33.5 127t87.5 88q24 14 53 22t62 8q40 0 77.5 -12.5t69.5 -40.5v43h84v-43q28 25 63.5 39t77.5 14q48 0 90 -19t73.5 -52t49.5 -77.5t18 -96.5v-8t-1 -12h-367q3 -30 16 -55.5t34.5 -45 t49.5 -30.5t60 -11q25 0 45 6t36 15t28.5 20.5t22.5 22.5l62 -59q-26 -33 -74 -60.5t-118 -27.5q-48 0 -90.5 16.5t-75.5 47.5v-54h-84v43z"/>
<glyph glyph-name="ccedilla" horiz-adv-x="530" unicode="ç" d="M505 100q-26 -42 -72.5 -71t-102.5 -36l-26 -133h-105l61 133q-47 6 -86.5 26.5t-68 52.5t-44.5 73.5t-16 89.5q0 52 18.5 97t51 78t77.5 51.5t98 18.5q62 0 114.5 -28t85.5 -74l-70 -59q-20 27 -52.5 49t-77.5 22q-32 0 -59.5 -11.5t-47.5 -32.5t-31.5 -49.5 t-11.5 -61.5q0 -35 11.5 -63.5t32.5 -48.5t49.5 -31.5t62.5 -11.5q47 0 80 21.5t56 51.5z"/>
<glyph glyph-name="egrave" horiz-adv-x="545" unicode="è" d="M277 397q-46 0 -83 -28t-49 -74h256q-5 22 -17.5 41t-29 32.5t-36.5 21t-41 7.5zM137 215q2 -30 14.5 -55.5t32.5 -45t47 -30.5t58 -11q52 0 83.5 20.5t51.5 43.5l62 -59q-26 -34 -76 -61t-122 -27q-51 0 -95.5 18.5t-77.5 51t-51.5 77.5t-18.5 98t17 98t47.5 77.5 t72.5 51t92 18.5q49 0 90.5 -18.5t71.5 -51.5t47 -78t17 -97v-8t-1 -12h-362zM262 550l-105 150h105l65 -150h-65z"/>
<glyph glyph-name="eacute" horiz-adv-x="545" unicode="é" d="M277 397q-46 0 -83 -28t-49 -74h256q-5 22 -17.5 41t-29 32.5t-36.5 21t-41 7.5zM137 215q2 -30 14.5 -55.5t32.5 -45t47 -30.5t58 -11q52 0 83.5 20.5t51.5 43.5l62 -59q-26 -34 -76 -61t-122 -27q-51 0 -95.5 18.5t-77.5 51t-51.5 77.5t-18.5 98t17 98t47.5 77.5 t72.5 51t92 18.5q49 0 90.5 -18.5t71.5 -51.5t47 -78t17 -97v-8t-1 -12h-362zM237 550l65 150h105l-105 -150h-65z"/>
<glyph glyph-name="ecircumflex" horiz-adv-x="545" unicode="ê" d="M277 397q-46 0 -83 -28t-49 -74h256q-5 22 -17.5 41t-29 32.5t-36.5 21t-41 7.5zM137 215q2 -30 14.5 -55.5t32.5 -45t47 -30.5t58 -11q52 0 83.5 20.5t51.5 43.5l62 -59q-26 -34 -76 -61t-122 -27q-51 0 -95.5 18.5t-77.5 51t-51.5 77.5t-18.5 98t17 98t47.5 77.5 t72.5 51t92 18.5q49 0 90.5 -18.5t71.5 -51.5t47 -78t17 -97v-8t-1 -12h-362zM127 550l95 150h110l95 -150h-65l-85 94l-85 -94h-65z"/>
<glyph glyph-name="edieresis" horiz-adv-x="545" unicode="ë" d="M277 397q-46 0 -83 -28t-49 -74h256q-5 22 -17.5 41t-29 32.5t-36.5 21t-41 7.5zM137 215q2 -30 14.5 -55.5t32.5 -45t47 -30.5t58 -11q52 0 83.5 20.5t51.5 43.5l62 -59q-26 -34 -76 -61t-122 -27q-51 0 -95.5 18.5t-77.5 51t-51.5 77.5t-18.5 98t17 98t47.5 77.5 t72.5 51t92 18.5q49 0 90.5 -18.5t71.5 -51.5t47 -78t17 -97v-8t-1 -12h-362zM302 617q0 26 18 44.5t44 18.5t44.5 -18.5t18.5 -44.5t-18.5 -44t-44.5 -18t-44 18t-18 44zM117 617q0 26 18 44.5t44 18.5t44.5 -18.5t18.5 -44.5t-18.5 -44t-44.5 -18t-44 18t-18 44z"/>
<glyph glyph-name="igrave" horiz-adv-x="265" unicode="ì" d="M85 470h95v-470h-95v470zM116 550l-105 150h105l65 -150h-65z"/>
<glyph glyph-name="iacute" horiz-adv-x="265" unicode="í" d="M85 470h95v-470h-95v470zM85 550l65 150h105l-105 -150h-65z"/>
<glyph glyph-name="icircumflex" horiz-adv-x="265" unicode="î" d="M85 470h95v-470h-95v470zM-17 550l95 150h110l95 -150h-65l-85 94l-85 -94h-65z"/>
<glyph glyph-name="idieresis" horiz-adv-x="265" unicode="ï" d="M85 470h95v-470h-95v470zM163 617q0 26 18 44.5t44 18.5t44.5 -18.5t18.5 -44.5t-18.5 -44t-44.5 -18t-44 18t-18 44zM-22 617q0 26 18 44.5t44 18.5t44.5 -18.5t18.5 -44.5t-18.5 -44t-44.5 -18t-44 18t-18 44z"/>
<glyph glyph-name="eth" horiz-adv-x="576" unicode="ð" d="M288 390q-33 0 -60 -12t-46.5 -33t-30.5 -49.5t-11 -60.5t11 -60.5t30.5 -49.5t46.5 -33t60 -12t60 12t46.5 33t30.5 49.5t11 60.5t-14.5 68t-37.5 64q-17 9 -43 16t-53 7zM182 501l-45 68l80 51l-59 90h111l26 -41l80 51l45 -68l-80 -51l120 -180q32 -48 51.5 -95 t19.5 -91q0 -51 -18.5 -95.5t-51 -77.5t-77 -52.5t-96.5 -19.5t-96.5 19t-77 52.5t-51 78t-18.5 95.5t18 95.5t50.5 77.5t77 52.5t97.5 19.5q5 0 11 -0.5t12 -1.5l-49 74z"/>
<glyph glyph-name="ntilde" horiz-adv-x="610" unicode="ñ" d="M177 425q19 18 54.5 36.5t86.5 18.5q52 0 96.5 -22.5t74.5 -60.5q23 -29 34.5 -67.5t11.5 -99.5v-230h-95v235q0 45 -7.5 69t-20.5 40q-17 21 -42.5 33.5t-54.5 12.5q-47 0 -80.5 -20.5t-54.5 -46.5v-323h-95v470h92v-45zM141 581q1 22 8.5 42t20.5 35t31 23.5t41 8.5 q19 0 37 -7t35 -15.5t33 -15.5t31 -7q17 0 25.5 11.5t12.5 33.5l65 -21q-1 -22 -8.5 -42t-20.5 -35t-31.5 -23.5t-40.5 -8.5q-19 0 -37 7t-35 15.5t-33 15.5t-31 7q-17 0 -25.5 -11.5t-12.5 -33.5z"/>
<glyph glyph-name="ograve" horiz-adv-x="576" unicode="ò" d="M140 235q0 -32 11 -60.5t30.5 -49.5t46.5 -33t60 -12t60 12t46.5 33t30.5 49.5t11 60.5t-11 60.5t-30.5 49.5t-46.5 33t-60 12t-60 -12t-46.5 -33t-30.5 -49.5t-11 -60.5zM45 235q0 52 18.5 97t51 78t77 51.5t96.5 18.5t96.5 -18.5t77 -51.5t51 -78t18.5 -97 q0 -53 -18.5 -97.5t-51 -77.5t-77 -51.5t-96.5 -18.5t-96.5 18.5t-77 51.5t-51 77.5t-18.5 97.5zM258 550l-105 150h105l65 -150h-65z"/>
<glyph glyph-name="oacute" horiz-adv-x="576" unicode="ó" d="M140 235q0 -32 11 -60.5t30.5 -49.5t46.5 -33t60 -12t60 12t46.5 33t30.5 49.5t11 60.5t-11 60.5t-30.5 49.5t-46.5 33t-60 12t-60 -12t-46.5 -33t-30.5 -49.5t-11 -60.5zM45 235q0 52 18.5 97t51 78t77 51.5t96.5 18.5t96.5 -18.5t77 -51.5t51 -78t18.5 -97 q0 -53 -18.5 -97.5t-51 -77.5t-77 -51.5t-96.5 -18.5t-96.5 18.5t-77 51.5t-51 77.5t-18.5 97.5zM253 550l65 150h105l-105 -150h-65z"/>
<glyph glyph-name="ocircumflex" horiz-adv-x="576" unicode="ô" d="M140 235q0 -32 11 -60.5t30.5 -49.5t46.5 -33t60 -12t60 12t46.5 33t30.5 49.5t11 60.5t-11 60.5t-30.5 49.5t-46.5 33t-60 12t-60 -12t-46.5 -33t-30.5 -49.5t-11 -60.5zM45 235q0 52 18.5 97t51 78t77 51.5t96.5 18.5t96.5 -18.5t77 -51.5t51 -78t18.5 -97 q0 -53 -18.5 -97.5t-51 -77.5t-77 -51.5t-96.5 -18.5t-96.5 18.5t-77 51.5t-51 77.5t-18.5 97.5zM138 550l95 150h110l95 -150h-65l-85 94l-85 -94h-65z"/>
<glyph glyph-name="otilde" horiz-adv-x="576" unicode="õ" d="M140 235q0 -32 11 -60.5t30.5 -49.5t46.5 -33t60 -12t60 12t46.5 33t30.5 49.5t11 60.5t-11 60.5t-30.5 49.5t-46.5 33t-60 12t-60 -12t-46.5 -33t-30.5 -49.5t-11 -60.5zM45 235q0 52 18.5 97t51 78t77 51.5t96.5 18.5t96.5 -18.5t77 -51.5t51 -78t18.5 -97 q0 -53 -18.5 -97.5t-51 -77.5t-77 -51.5t-96.5 -18.5t-96.5 18.5t-77 51.5t-51 77.5t-18.5 97.5zM119 581q1 22 8.5 42t20.5 35t31 23.5t41 8.5q19 0 37 -7t35 -15.5t33 -15.5t31 -7q17 0 25.5 11.5t12.5 33.5l65 -21q-1 -22 -8.5 -42t-20.5 -35t-31.5 -23.5t-40.5 -8.5 q-19 0 -37 7t-35 15.5t-33 15.5t-31 7q-17 0 -25.5 -11.5t-12.5 -33.5z"/>
<glyph glyph-name="odieresis" horiz-adv-x="576" unicode="ö" d="M140 235q0 -32 11 -60.5t30.5 -49.5t46.5 -33t60 -12t60 12t46.5 33t30.5 49.5t11 60.5t-11 60.5t-30.5 49.5t-46.5 33t-60 12t-60 -12t-46.5 -33t-30.5 -49.5t-11 -60.5zM45 235q0 52 18.5 97t51 78t77 51.5t96.5 18.5t96.5 -18.5t77 -51.5t51 -78t18.5 -97 q0 -53 -18.5 -97.5t-51 -77.5t-77 -51.5t-96.5 -18.5t-96.5 18.5t-77 51.5t-51 77.5t-18.5 97.5zM318 617q0 26 18 44.5t44 18.5t44.5 -18.5t18.5 -44.5t-18.5 -44t-44.5 -18t-44 18t-18 44zM133 617q0 26 18 44.5t44 18.5t44.5 -18.5t18.5 -44.5t-18.5 -44t-44.5 -18 t-44 18t-18 44z"/>
<glyph glyph-name="divide" horiz-adv-x="540" unicode="÷" d="M200 420q0 29 20.5 49.5t49.5 20.5t49.5 -20.5t20.5 -49.5t-20.5 -49.5t-49.5 -20.5t-49.5 20.5t-20.5 49.5zM200 100q0 29 20.5 49.5t49.5 20.5t49.5 -20.5t20.5 -49.5t-20.5 -49.5t-49.5 -20.5t-49.5 20.5t-20.5 49.5zM490 305v-90h-440v90h440z"/>
<glyph glyph-name="oslash" horiz-adv-x="576" unicode="ø" d="M436 235q0 45 -22 83l-189 -225q29 -13 63 -13q33 0 60 12t46.5 33t30.5 49.5t11 60.5zM140 235q0 -46 22 -84l189 225q-30 14 -63 14t-60 -12t-46.5 -33t-30.5 -49.5t-11 -60.5zM45 235q0 52 18.5 97t51 78t77 51.5t96.5 18.5q35 0 65.5 -8.5t57.5 -23.5l28 32h111 l-74 -87q26 -32 40.5 -72t14.5 -86q0 -53 -18.5 -97.5t-51 -77.5t-77 -51.5t-96.5 -18.5q-69 0 -123 31l-26 -31h-112l72 86q-26 32 -40 72t-14 87z"/>
<glyph glyph-name="ugrave" horiz-adv-x="600" unicode="ù" d="M285 -10q-51 0 -94.5 21t-72.5 58q-22 27 -32.5 64t-10.5 97v240h95v-255q0 -36 7 -57.5t20 -36.5q16 -19 40 -30t51 -11q44 0 78 21.5t54 45.5v323h95v-470h-92v43q-8 -8 -21.5 -17t-31 -17t-39.5 -13.5t-46 -5.5zM275 550l-105 150h105l65 -150h-65z"/>
<glyph glyph-name="uacute" horiz-adv-x="600" unicode="ú" d="M285 -10q-51 0 -94.5 21t-72.5 58q-22 27 -32.5 64t-10.5 97v240h95v-255q0 -36 7 -57.5t20 -36.5q16 -19 40 -30t51 -11q44 0 78 21.5t54 45.5v323h95v-470h-92v43q-8 -8 -21.5 -17t-31 -17t-39.5 -13.5t-46 -5.5zM260 550l65 150h105l-105 -150h-65z"/>
<glyph glyph-name="ucircumflex" horiz-adv-x="600" unicode="û" d="M285 -10q-51 0 -94.5 21t-72.5 58q-22 27 -32.5 64t-10.5 97v240h95v-255q0 -36 7 -57.5t20 -36.5q16 -19 40 -30t51 -11q44 0 78 21.5t54 45.5v323h95v-470h-92v43q-8 -8 -21.5 -17t-31 -17t-39.5 -13.5t-46 -5.5zM145 550l95 150h110l95 -150h-65l-85 94l-85 -94h-65z "/>
<glyph glyph-name="udieresis" horiz-adv-x="600" unicode="ü" d="M285 -10q-51 0 -94.5 21t-72.5 58q-22 27 -32.5 64t-10.5 97v240h95v-255q0 -36 7 -57.5t20 -36.5q16 -19 40 -30t51 -11q44 0 78 21.5t54 45.5v323h95v-470h-92v43q-8 -8 -21.5 -17t-31 -17t-39.5 -13.5t-46 -5.5zM325 617q0 26 18 44.5t44 18.5t44.5 -18.5t18.5 -44.5 t-18.5 -44t-44.5 -18t-44 18t-18 44zM140 617q0 26 18 44.5t44 18.5t44.5 -18.5t18.5 -44.5t-18.5 -44t-44.5 -18t-44 18t-18 44z"/>
<glyph glyph-name="yacute" horiz-adv-x="509" unicode="ý" d="M84 -240l127 289l-201 421h102l147 -310l135 310h100l-309 -710h-101zM222 550l65 150h105l-105 -150h-65z"/>
<glyph glyph-name="thorn" d="M180 147q24 -32 58.5 -49.5t70.5 -17.5q34 0 62.5 12.5t49.5 33.5t32.5 49t11.5 60q0 31 -11 59t-30.5 49.5t-47.5 34t-62 12.5q-43 0 -77.5 -19t-56.5 -48v-176zM180 710v-281q32 26 69 38.5t75 12.5q33 0 62 -8t53 -22q54 -32 87.5 -88t33.5 -127t-33 -126.5t-87 -87.5 q-24 -14 -55 -22.5t-63 -8.5q-83 0 -142 51v-281h-95v950h95z" unicode="þ"/>
<glyph glyph-name="dotlessi" horiz-adv-x="265" unicode="ı" d="M85 470h95v-470h-95v470z"/>
<glyph glyph-name="OE" horiz-adv-x="1085" unicode="Œ" d="M385 85q54 0 99.5 20t79 55.5t52.5 84t19 105.5t-19 105.5t-52.5 84t-79 55.5t-99.5 20t-99.5 -20t-79 -55.5t-52.5 -84t-19 -105.5t19 -105.5t52.5 -84t79 -55.5t99.5 -20zM35 350q0 76 27 142t74 114.5t111 76t138 27.5q75 0 139 -28.5t111 -78.5v97h400v-95h-300v-180 h230v-95h-230v-235h310v-95h-410v97q-47 -51 -111 -79t-139 -28q-74 0 -138 27.5t-111 76t-74 114t-27 142.5z"/>
<glyph glyph-name="oe" horiz-adv-x="936" unicode="œ" d="M668 397q-46 0 -83 -28t-49 -74h256q-5 22 -17.5 41t-29 32.5t-36.5 21t-41 7.5zM140 235q0 -32 11 -60.5t30.5 -49.5t46.5 -33t60 -12t60 12t46.5 33t30.5 49.5t11 60.5t-11 60.5t-30.5 49.5t-46.5 33t-60 12t-60 -12t-46.5 -33t-30.5 -49.5t-11 -60.5zM528 215 q2 -30 14.5 -55.5t32.5 -45t47 -30.5t58 -11q52 0 83.5 20.5t51.5 43.5l62 -59q-26 -34 -76 -61t-122 -27q-63 0 -113.5 27t-82.5 74q-31 -46 -81.5 -73.5t-113.5 -27.5q-52 0 -96.5 18.5t-77 51.5t-51 77.5t-18.5 97.5q0 52 18.5 97t51 78t77 51.5t96.5 18.5 q62 0 111.5 -26.5t81.5 -71.5q29 45 76.5 71.5t107.5 26.5q49 0 90.5 -18.5t71.5 -51.5t47 -78t17 -97v-8t-1 -12h-362z"/>
<glyph glyph-name="Scaron" horiz-adv-x="532" unicode="Š" d="M99 175q31 -38 74 -64t97 -26q24 0 46.5 7.5t39 21.5t26.5 33t10 43q0 40 -24.5 64.5t-61 42.5t-78.5 34t-77 39q-38 25 -63.5 62t-25.5 92q0 38 16 72t44.5 59.5t67 40t84.5 14.5q33 0 61.5 -6.5t52 -17t42 -22.5t32.5 -24l-59 -73q-57 48 -125 48q-22 0 -42.5 -6 t-37 -18t-26.5 -29.5t-10 -40.5q0 -33 24.5 -55t61 -39.5t78 -34.5t75.5 -39q18 -12 34 -27t29 -34.5t20.5 -44t7.5 -54.5q0 -46 -17 -83.5t-46 -64t-68.5 -41t-85.5 -14.5q-72 0 -135 30t-110 87zM199 900l85 -94l85 94h65l-95 -150h-110l-95 150h65z"/>
<glyph glyph-name="scaron" horiz-adv-x="455" unicode="š" d="M89 125q67 -52 139 -52q31 0 56.5 15.5t25.5 43.5q0 20 -13.5 32t-34.5 19.5t-47 13.5t-52 15q-21 7 -40.5 17.5t-34.5 25.5t-24 34t-9 44q0 38 15.5 65.5t40 45.5t55.5 27t63 9q52 0 90 -14.5t66 -37.5l-49 -68q-22 17 -47 27t-54 10q-35 0 -60 -15.5t-25 -43.5 q0 -24 24.5 -35t59.5 -20q28 -7 58 -17.5t55 -27.5t41.5 -42.5t16.5 -61.5q0 -33 -14.5 -60t-38.5 -45.5t-56 -28.5t-66 -10q-110 0 -190 65zM147 700l85 -94l85 94h65l-95 -150h-110l-95 150h65z"/>
<glyph glyph-name="Ydieresis" horiz-adv-x="600" unicode="Ÿ" d="M350 320v-320h-100v320l-240 380h112l178 -281l178 281h112zM330 817q0 26 18 44.5t44 18.5t44.5 -18.5t18.5 -44.5t-18.5 -44t-44.5 -18t-44 18t-18 44zM145 817q0 26 18 44.5t44 18.5t44.5 -18.5t18.5 -44.5t-18.5 -44t-44.5 -18t-44 18t-18 44z"/>
<glyph glyph-name="circumflex" horiz-adv-x="440" unicode="ˆ" d="M70 550l95 150h110l95 -150h-65l-85 94l-85 -94h-65z"/>
<glyph glyph-name="caron" horiz-adv-x="440" unicode="ˇ" d="M135 700l85 -94l85 94h65l-95 -150h-110l-95 150h65z"/>
<glyph glyph-name="ring" horiz-adv-x="340" unicode="˚" d="M130 630q0 -17 11.5 -28.5t28.5 -11.5t28.5 11.5t11.5 28.5t-11.5 28.5t-28.5 11.5t-28.5 -11.5t-11.5 -28.5zM70 630q0 42 29 71t71 29t71 -29t29 -71t-29 -71t-71 -29t-71 29t-29 71z"/>
<glyph glyph-name="tilde" horiz-adv-x="480" unicode="˜" d="M70 581q1 22 8.5 42t20.5 35t31 23.5t41 8.5q19 0 37 -7t35 -15.5t33 -15.5t31 -7q17 0 25.5 11.5t12.5 33.5l65 -21q-1 -22 -8.5 -42t-20.5 -35t-31.5 -23.5t-40.5 -8.5q-19 0 -37 7t-35 15.5t-33 15.5t-31 7q-17 0 -25.5 -11.5t-12.5 -33.5z"/>
<glyph glyph-name="uni0394" horiz-adv-x="570" unicode="Δ" d="M457 90l-172 446l-172 -446h344zM318 700l247 -640v-60h-560v60l247 640h66z"/>
<glyph glyph-name="uni03BC" horiz-adv-x="610" unicode="μ" d="M295 -10q-20 0 -37.5 4.5t-32.5 11t-26.5 14.5t-18.5 15v-275h-95v710h95v-255q0 -36 7 -57.5t20 -36.5q16 -19 39 -30t49 -11q47 0 79.5 21t55.5 46v323h95v-470h-92v43q-8 -8 -21.5 -17t-31 -17t-39.5 -13.5t-46 -5.5z"/>
<glyph glyph-name="pi" horiz-adv-x="575" unicode="π" d="M433 -10q-24 12 -38.5 29t-22 38t-10 44.5t-2.5 48.5v230h-100v-380h-95v374q-16 -3 -28 -9q-19 -9 -31.5 -22.5t-23.5 -28.5l-77 46q14 26 39 51t63 41q20 8 46 13t61 5h341v-90h-100v-227q0 -30 4 -50.5t28 -34.5z"/>
<glyph glyph-name="endash" horiz-adv-x="490" unicode="–" d="M470 295v-80h-450v80h450z"/>
<glyph glyph-name="emdash" horiz-adv-x="790" unicode="—" d="M770 295v-80h-750v80h750z"/>
<glyph glyph-name="quoteleft" horiz-adv-x="285" unicode="‘" d="M50 450l120 260h65l-75 -260h-110z"/>
<glyph glyph-name="quotesinglbase" horiz-adv-x="285" unicode="‚" d="M235 120l-120 -260h-65l75 260h110z"/>
<glyph glyph-name="quotedblleft" horiz-adv-x="495" unicode="“" d="M50 450l120 260h65l-75 -260h-110zM260 450l120 260h65l-75 -260h-110z"/>
<glyph glyph-name="quotedblright" horiz-adv-x="495" unicode="”" d="M445 710l-120 -260h-65l75 260h110zM235 710l-120 -260h-65l75 260h110z"/>
<glyph glyph-name="dagger" horiz-adv-x="525" unicode="†" d="M215 460v240h95v-240h165v-90h-165v-570h-95v570h-165v90h165z"/>
<glyph glyph-name="daggerdbl" horiz-adv-x="525" unicode="‡" d="M215 460v240h95v-240h165v-90h-165v-150h165v-90h-165v-330h-95v330h-165v90h165v150h-165v90h165z"/>
<glyph glyph-name="ellipsis" horiz-adv-x="930" unicode="…" d="M700 60q0 29 20.5 49.5t49.5 20.5t49.5 -20.5t20.5 -49.5t-20.5 -49.5t-49.5 -20.5t-49.5 20.5t-20.5 49.5zM405 60q0 29 20.5 49.5t49.5 20.5t49.5 -20.5t20.5 -49.5t-20.5 -49.5t-49.5 -20.5t-49.5 20.5t-20.5 49.5zM110 60q0 29 20.5 49.5t49.5 20.5t49.5 -20.5 t20.5 -49.5t-20.5 -49.5t-49.5 -20.5t-49.5 20.5t-20.5 49.5z"/>
<glyph glyph-name="perthousand" horiz-adv-x="1215" unicode="‰" d="M975 75q42 0 66 29t24 71t-24 71t-66 29t-66 -29t-24 -71t24 -71t66 -29zM705 75q42 0 66 29t24 71t-24 71t-66 29t-66 -29t-24 -71t24 -71t66 -29zM150 525q0 -42 24 -71t66 -29t66 29t24 71t-24 71t-66 29t-66 -29t-24 -71zM220 0l409 700h96l-409 -700h-96zM420 525 q0 -38 -13.5 -72t-37.5 -59t-57 -39.5t-72 -14.5t-72 14.5t-57 39.5t-37.5 59t-13.5 72t13.5 72t37.5 59t57 39.5t72 14.5t72 -14.5t57 -39.5t37.5 -59t13.5 -72zM1155 175q0 -38 -13.5 -72t-37.5 -59t-57 -39.5t-72 -14.5q-42 0 -76.5 16t-58.5 45q-25 -29 -59 -45t-76 -16 q-39 0 -72 14.5t-57 39.5t-37.5 59t-13.5 72t13.5 72t37.5 59t57 39.5t72 14.5q42 0 76 -16.5t59 -44.5q24 28 58.5 44.5t76.5 16.5q39 0 72 -14.5t57 -39.5t37.5 -59t13.5 -72z"/>
<glyph glyph-name="guilsinglleft" horiz-adv-x="370" unicode="‹" d="M330 50h-116l-134 165v50l134 165h116l-154 -190z"/>
<glyph glyph-name="guilsinglright" horiz-adv-x="370" unicode="›" d="M194 240l-154 190h116l134 -165v-50l-134 -165h-116z"/>
<glyph glyph-name="fraction" horiz-adv-x="505" unicode="⁄" d="M5 0l409 700h86l-409 -700h-86z"/>
<glyph glyph-name="Euro" horiz-adv-x="580" unicode="€" d="M159 350v-18t1 -17h267v-85h-250q22 -64 68 -104.5t118 -40.5q49 0 86 19.5t63 53.5l78 -51q-40 -56 -96 -86.5t-131 -30.5q-58 0 -105.5 18t-84.5 50t-62.5 76t-38.5 96h-82v85h68q-1 8 -1 17v18v17.5t1 17.5h-68v85h82q13 51 38 95t61 76.5t83 50.5t104 18 q73 0 127.5 -30.5t94.5 -86.5l-78 -51q-26 34 -61 53.5t-83 19.5q-70 0 -115 -40.5t-66 -104.5h250v-85h-267q-1 -9 -1 -17.5v-17.5z"/>
<glyph glyph-name="trademark" horiz-adv-x="845" unicode="™" d="M342 700v-68h-100v-315h-72v315h-100v68h272zM443 700l143 -216l144 216h45v-383h-72v222l-95 -141h-44l-94 141v-222h-73v383h46z"/>
<glyph glyph-name="arrowleft" horiz-adv-x="719" unicode="←" d="M261 29l-201 201v50l201 201h113l-188 -186h473v-80h-473l188 -186h-113z"/>
<glyph glyph-name="arrowright" horiz-adv-x="719" unicode="→" d="M345 29l188 186h-473v80h473l-188 186h113l201 -201v-50l-201 -201h-113z"/>
<glyph glyph-name="partialdiff" horiz-adv-x="576" unicode="∂" d="M288 390q-33 0 -60 -12t-46.5 -33t-30.5 -49.5t-11 -60.5t11 -60.5t30.5 -49.5t46.5 -33t60 -12t60 12t46.5 33t30.5 49.5t11 60.5t-14.5 68t-37.5 64q-17 9 -43 16t-53 7zM269 710l191 -289q32 -48 51.5 -95t19.5 -91q0 -51 -18.5 -95.5t-51 -77.5t-77 -52.5 t-96.5 -19.5t-96.5 19t-77 52.5t-51 78t-18.5 95.5t18 95.5t50.5 77.5t77 52.5t97.5 19.5q5 0 11 -0.5t12 -1.5l-153 232h111z"/>
<glyph glyph-name="product" horiz-adv-x="570" unicode="∏" d="M110 0v610h-100v90h550v-90h-100v-610h-95v610h-160v-610h-95z"/>
<glyph glyph-name="summation" horiz-adv-x="560" unicode="∑" d="M430 610h-267l211 -220v-60l-224 -240h290v110h90v-200h-530v60l280 300l-270 280v60h510v-200h-90v110z"/>
<glyph glyph-name="minus" horiz-adv-x="540" unicode="−" d="M490 305v-90h-440v90h440z"/>
<glyph glyph-name="radical" horiz-adv-x="580" unicode="√" d="M590 700l-249 -700h-66l-156 380h-109v90h170l125 -304l189 534h96z"/>
<glyph glyph-name="infinity" horiz-adv-x="770" unicode="∞" d="M217 384q-45 0 -68.5 -30.5t-23.5 -76.5t23.5 -76.5t68.5 -30.5q22 0 39.5 8.5t32 23t26.5 34t23 41.5q-11 22 -23 41.5t-26.5 34t-32 23t-39.5 8.5zM645 277q0 46 -23.5 76.5t-68.5 30.5q-23 0 -40.5 -8.5t-31.5 -23t-26 -34t-23 -41.5q11 -22 23 -41.5t26 -34t31.5 -23 t40.5 -8.5q45 0 68.5 30.5t23.5 76.5zM740 277q0 -43 -13.5 -79t-38 -62.5t-59 -41t-76.5 -14.5q-32 0 -57.5 8.5t-45.5 23t-36 34t-29 41.5q-13 -22 -29 -41.5t-36.5 -34t-45.5 -23t-57 -8.5q-42 0 -76.5 14.5t-59 41t-38 62.5t-13.5 79t13.5 79t38 62.5t59 41t76.5 14.5 q32 0 57 -8.5t45.5 -23t36.5 -34t29 -41.5q13 22 29 41.5t36 34t45.5 23t57.5 8.5q42 0 76.5 -14.5t59 -41t38 -62.5t13.5 -79z"/>
<glyph glyph-name="approxequal" horiz-adv-x="580" unicode="≈" d="M545 209q-9 -23 -22.5 -45.5t-32 -41t-43 -30t-54.5 -11.5q-35 0 -63 13.5t-52 30t-45 30.5t-42 14q-14 0 -25.5 -7t-21.5 -18t-18 -25t-14 -27l-77 39q9 22 22.5 45t32 41.5t43 30t54.5 11.5q35 0 63 -14t52 -30.5t45 -30t42 -13.5q13 0 25 7t22 18t18 24.5t14 27.5z M545 389q-9 -23 -22.5 -45.5t-32 -41t-43 -30t-54.5 -11.5q-35 0 -63 13.5t-52 30t-45 30.5t-42 14q-14 0 -25.5 -7t-21.5 -18t-18 -25t-14 -27l-77 39q9 22 22.5 45t32 41.5t43 30t54.5 11.5q35 0 63 -14t52 -30.5t45 -30t42 -13.5q13 0 25 7t22 18t18 24.5t14 27.5z"/>
<glyph glyph-name="notequal" horiz-adv-x="540" unicode="≠" d="M295 395l61 105h104l-61 -105h91v-90h-142l-52 -90h194v-90h-246l-60 -105h-104l60 105h-90v90h142l52 90h-194v90h245z"/>
<glyph glyph-name="lessequal" horiz-adv-x="545" unicode="≤" d="M490 237v-95l-440 148v60l440 148v-95l-246 -83zM490 110v-90h-440v90h440z"/>
<glyph glyph-name="greaterequal" horiz-adv-x="545" unicode="≥" d="M301 320l-246 83v95l440 -148v-60l-440 -148v95zM495 110v-90h-440v90h440z"/>
<glyph glyph-name="lozenge" horiz-adv-x="550" unicode="◊" d="M123 350l152 -237l152 237l-152 237zM35 320v60l207 320h66l207 -320v-60l-207 -320h-66z"/>
<glyph glyph-name="one.numr" d="M30 644l110 56h45v-360h-75v266l-80 -37v75z" horiz-adv-x="235"/>
<glyph glyph-name="three.numr" d="M80 432q8 -14 23.5 -24t34.5 -10q26 0 43 17.5t17 42.5q0 24 -16 43t-45 19q-22 0 -49 -11v40l61 81h-115v70h223v-40l-64 -88q35 -12 57.5 -44t22.5 -70q0 -27 -10.5 -50.5t-28.5 -40.5t-43 -27t-53 -10q-41 0 -71 18.5t-47 45.5z" horiz-adv-x="303"/>
<glyph glyph-name="two.dnom" d="M31 276q11 43 43.5 68.5t77.5 25.5q24 0 46.5 -8.5t39 -24t26.5 -37t10 -47.5q0 -28 -12.5 -51.5t-30.5 -43.5l-79 -88h124v-70h-246v40l136 152q11 11 22 27t11 34q0 19 -12.5 33t-34.5 14q-19 0 -32 -12.5t-19 -32.5z" horiz-adv-x="311"/>
<glyph glyph-name="four.dnom" d="M186 147v66l-50 -66h50zM261 360v-213h61v-70h-61v-77h-75v77h-161v40l191 243h45z" horiz-adv-x="337"/>
</font>
</defs>
</svg>
